<?xml version="1.0" encoding="utf-8"?>
<!-- Generator: Adobe Illustrator 27.2.0, SVG Export Plug-In . SVG Version: 6.00 Build 0)  -->
<svg version="1.1" id="Layer_1" xmlns="http://www.w3.org/2000/svg" xmlns:xlink="http://www.w3.org/1999/xlink" x="0px" y="0px"
	 viewBox="0 0 350 100" style="enable-background:new 0 0 350 100;" xml:space="preserve">
<style type="text/css">
	.st0{fill:#202020;}
	.st1{fill:none;stroke:#202020;stroke-width:1.1673;stroke-miterlimit:10;}
</style>
<g>
	<g>
		<g>
			<g>
				<path class="st0" d="M188.88,34.43c-1.03-0.57-1.84-1.36-2.43-2.37c-0.59-1.01-0.88-2.14-0.88-3.39c0-1.25,0.29-2.38,0.88-3.39
					c0.59-1.01,1.4-1.8,2.44-2.37c1.04-0.57,2.2-0.85,3.49-0.85c0.96,0,1.86,0.16,2.67,0.48c0.82,0.32,1.51,0.79,2.08,1.41
					l-0.87,0.87c-1.02-1.03-2.3-1.54-3.84-1.54c-1.03,0-1.96,0.23-2.8,0.7s-1.5,1.11-1.98,1.93c-0.48,0.82-0.72,1.73-0.72,2.75
					c0,1.02,0.24,1.93,0.72,2.75c0.48,0.82,1.14,1.46,1.98,1.93c0.84,0.47,1.78,0.7,2.8,0.7c1.56,0,2.84-0.52,3.84-1.56l0.87,0.87
					c-0.57,0.62-1.27,1.09-2.09,1.42s-1.72,0.49-2.68,0.49C191.08,35.29,189.92,35,188.88,34.43z"/>
				<path class="st0" d="M206.49,31.7h-7.24l-1.56,3.47h-1.43l5.94-13h1.35l5.94,13h-1.45L206.49,31.7z M205.99,30.59l-3.12-6.98
					l-3.12,6.98H205.99z"/>
				<path class="st0" d="M223.76,22.18v13h-1.32v-10.4l-5.1,8.75h-0.65l-5.1-8.69v10.34h-1.32v-13h1.13l5.64,9.64l5.59-9.64H223.76z
					"/>
				<path class="st0" d="M235.37,23.37c0.94,0.79,1.41,1.88,1.41,3.27c0,1.39-0.47,2.47-1.41,3.26c-0.94,0.79-2.24,1.18-3.9,1.18
					h-3.49v4.1h-1.37v-13h4.87C233.13,22.18,234.43,22.58,235.37,23.37z M234.38,29.02c0.68-0.56,1.02-1.36,1.02-2.38
					c0-1.05-0.34-1.86-1.02-2.42c-0.68-0.56-1.66-0.85-2.95-0.85h-3.45v6.5h3.45C232.72,29.87,233.7,29.58,234.38,29.02z"/>
				<path class="st0" d="M239.75,33.84c-0.94-0.97-1.41-2.37-1.41-4.22v-7.45h1.37v7.39c0,1.51,0.34,2.64,1.02,3.38
					c0.68,0.74,1.66,1.11,2.95,1.11c1.3,0,2.29-0.37,2.97-1.11c0.68-0.74,1.02-1.87,1.02-3.38v-7.39h1.34v7.45
					c0,1.84-0.47,3.25-1.4,4.22c-0.93,0.96-2.24,1.45-3.93,1.45C242.01,35.29,240.69,34.8,239.75,33.84z"/>
				<path class="st0" d="M252.57,34.82c-0.89-0.31-1.57-0.72-2.05-1.22l0.54-1.06c0.47,0.47,1.1,0.85,1.88,1.14
					c0.78,0.29,1.58,0.44,2.41,0.44c1.16,0,2.04-0.21,2.62-0.64c0.58-0.43,0.87-0.98,0.87-1.66c0-0.52-0.16-0.93-0.47-1.24
					c-0.32-0.31-0.7-0.55-1.16-0.71c-0.46-0.17-1.1-0.35-1.91-0.55c-0.98-0.25-1.76-0.49-2.34-0.71c-0.58-0.23-1.08-0.58-1.5-1.05
					c-0.41-0.47-0.62-1.11-0.62-1.91c0-0.66,0.17-1.25,0.52-1.79c0.35-0.54,0.88-0.97,1.6-1.29s1.61-0.48,2.67-0.48
					c0.74,0,1.47,0.1,2.18,0.31c0.71,0.21,1.33,0.49,1.85,0.85l-0.47,1.09c-0.54-0.36-1.13-0.63-1.74-0.81
					c-0.62-0.18-1.23-0.27-1.82-0.27c-1.14,0-2,0.22-2.57,0.66c-0.58,0.44-0.86,1.01-0.86,1.7c0,0.52,0.16,0.94,0.47,1.25
					c0.32,0.32,0.71,0.56,1.19,0.72c0.48,0.17,1.12,0.35,1.92,0.55c0.95,0.23,1.72,0.47,2.31,0.7c0.59,0.23,1.09,0.57,1.49,1.04
					c0.41,0.46,0.61,1.09,0.61,1.88c0,0.66-0.18,1.25-0.53,1.79c-0.35,0.54-0.89,0.97-1.63,1.28c-0.73,0.32-1.63,0.47-2.69,0.47
					C254.38,35.29,253.46,35.13,252.57,34.82z"/>
				<path class="st0" d="M266.07,34.82c-0.89-0.31-1.57-0.72-2.05-1.22l0.54-1.06c0.47,0.47,1.1,0.85,1.88,1.14
					c0.78,0.29,1.58,0.44,2.41,0.44c1.16,0,2.04-0.21,2.62-0.64c0.58-0.43,0.87-0.98,0.87-1.66c0-0.52-0.16-0.93-0.47-1.24
					c-0.32-0.31-0.7-0.55-1.16-0.71c-0.46-0.17-1.1-0.35-1.91-0.55c-0.98-0.25-1.76-0.49-2.34-0.71c-0.58-0.23-1.08-0.58-1.5-1.05
					c-0.41-0.47-0.62-1.11-0.62-1.91c0-0.66,0.17-1.25,0.52-1.79c0.35-0.54,0.88-0.97,1.6-1.29s1.61-0.48,2.67-0.48
					c0.74,0,1.47,0.1,2.18,0.31c0.71,0.21,1.33,0.49,1.85,0.85l-0.47,1.09c-0.54-0.36-1.13-0.63-1.74-0.81
					c-0.62-0.18-1.23-0.27-1.82-0.27c-1.14,0-2,0.22-2.57,0.66c-0.58,0.44-0.86,1.01-0.86,1.7c0,0.52,0.16,0.94,0.47,1.25
					c0.32,0.32,0.71,0.56,1.19,0.72c0.48,0.17,1.12,0.35,1.92,0.55c0.95,0.23,1.72,0.47,2.31,0.7c0.59,0.23,1.09,0.57,1.49,1.04
					c0.41,0.46,0.61,1.09,0.61,1.88c0,0.66-0.18,1.25-0.53,1.79c-0.35,0.54-0.89,0.97-1.63,1.28c-0.73,0.32-1.63,0.47-2.69,0.47
					C267.88,35.29,266.96,35.13,266.07,34.82z"/>
				<path class="st0" d="M276.59,33.84c-0.94-0.97-1.41-2.37-1.41-4.22v-7.45h1.37v7.39c0,1.51,0.34,2.64,1.02,3.38
					c0.68,0.74,1.66,1.11,2.95,1.11c1.3,0,2.29-0.37,2.97-1.11c0.68-0.74,1.02-1.87,1.02-3.38v-7.39h1.34v7.45
					c0,1.84-0.47,3.25-1.4,4.22c-0.93,0.96-2.24,1.45-3.93,1.45C278.84,35.29,277.53,34.8,276.59,33.84z"/>
				<path class="st0" d="M297.48,35.18L294.51,31c-0.33,0.04-0.68,0.06-1.04,0.06h-3.49v4.12h-1.37v-13h4.87
					c1.66,0,2.96,0.4,3.9,1.19c0.94,0.79,1.41,1.88,1.41,3.27c0,1.01-0.26,1.87-0.77,2.57c-0.52,0.7-1.25,1.2-2.2,1.51l3.17,4.46
					H297.48z M296.38,29.03c0.68-0.57,1.02-1.37,1.02-2.39c0-1.05-0.34-1.86-1.02-2.42c-0.68-0.56-1.66-0.85-2.95-0.85h-3.45v6.52
					h3.45C294.72,29.88,295.7,29.6,296.38,29.03z"/>
				<path class="st0" d="M188.88,56.1c-1.03-0.57-1.84-1.36-2.43-2.37c-0.59-1.01-0.88-2.14-0.88-3.39c0-1.25,0.29-2.38,0.88-3.39
					c0.59-1.01,1.4-1.8,2.44-2.37c1.04-0.57,2.2-0.85,3.49-0.85c0.96,0,1.86,0.16,2.67,0.48c0.82,0.32,1.51,0.79,2.08,1.41
					l-0.87,0.87c-1.02-1.03-2.3-1.54-3.84-1.54c-1.03,0-1.96,0.23-2.8,0.7c-0.84,0.47-1.5,1.11-1.98,1.93
					c-0.48,0.82-0.72,1.73-0.72,2.75c0,1.02,0.24,1.93,0.72,2.75c0.48,0.82,1.14,1.46,1.98,1.93c0.84,0.47,1.78,0.7,2.8,0.7
					c1.56,0,2.84-0.52,3.84-1.56l0.87,0.87c-0.57,0.62-1.27,1.09-2.09,1.42s-1.72,0.49-2.68,0.49
					C191.08,56.95,189.92,56.67,188.88,56.1z"/>
				<path class="st0" d="M198.68,43.84h5.29c1.37,0,2.59,0.28,3.64,0.83c1.05,0.55,1.87,1.32,2.45,2.3
					c0.58,0.98,0.87,2.11,0.87,3.37c0,1.26-0.29,2.39-0.87,3.37c-0.58,0.98-1.4,1.75-2.45,2.3c-1.05,0.55-2.27,0.83-3.64,0.83h-5.29
					V43.84z M203.9,55.65c1.14,0,2.14-0.23,2.99-0.68c0.85-0.45,1.52-1.08,1.99-1.87c0.47-0.8,0.7-1.72,0.7-2.76
					c0-1.04-0.23-1.96-0.7-2.76c-0.47-0.8-1.13-1.42-1.99-1.88c-0.85-0.45-1.85-0.68-2.99-0.68h-3.84v10.62H203.9z"/>
				<path class="st0" d="M226.12,43.84v13h-1.32v-10.4l-5.1,8.75h-0.65l-5.1-8.69v10.34h-1.32v-13h1.13l5.64,9.64l5.59-9.64H226.12z
					"/>
				<path class="st0" d="M237.11,56.84l-4.2-5.72l-4.18,5.72h-1.58l4.94-6.68l-4.62-6.31h1.58l3.92,5.31l3.9-5.31h1.49l-4.61,6.28
					l4.96,6.72H237.11z"/>
				<path class="st0" d="M187.53,78.15c-0.89-0.31-1.57-0.72-2.05-1.22l0.54-1.06c0.47,0.47,1.1,0.85,1.88,1.14
					c0.78,0.29,1.58,0.44,2.41,0.44c1.16,0,2.04-0.21,2.62-0.64c0.58-0.43,0.87-0.98,0.87-1.66c0-0.52-0.16-0.93-0.47-1.24
					c-0.32-0.31-0.7-0.55-1.16-0.71c-0.46-0.17-1.1-0.35-1.91-0.55c-0.98-0.25-1.76-0.49-2.34-0.71c-0.58-0.23-1.08-0.58-1.5-1.05
					c-0.41-0.47-0.62-1.11-0.62-1.91c0-0.66,0.17-1.25,0.52-1.79c0.35-0.54,0.88-0.97,1.6-1.29c0.72-0.32,1.61-0.48,2.67-0.48
					c0.74,0,1.47,0.1,2.18,0.31c0.71,0.21,1.33,0.49,1.85,0.85l-0.47,1.09c-0.54-0.36-1.13-0.63-1.74-0.81
					c-0.62-0.18-1.23-0.27-1.82-0.27c-1.14,0-2,0.22-2.57,0.66c-0.58,0.44-0.86,1.01-0.86,1.7c0,0.52,0.16,0.94,0.47,1.25
					c0.32,0.32,0.71,0.56,1.19,0.72c0.48,0.17,1.12,0.35,1.92,0.55c0.95,0.23,1.72,0.47,2.31,0.7c0.59,0.23,1.09,0.57,1.49,1.04
					c0.41,0.46,0.61,1.09,0.61,1.88c0,0.66-0.18,1.25-0.53,1.79c-0.35,0.54-0.89,0.97-1.63,1.28c-0.73,0.32-1.63,0.47-2.69,0.47
					C189.34,78.61,188.41,78.46,187.53,78.15z"/>
				<path class="st0" d="M205.84,77.31v1.19h-9.19v-13h8.91v1.19h-7.54v4.62h6.72v1.17h-6.72v4.83H205.84z"/>
				<path class="st0" d="M207.59,65.5h5.29c1.37,0,2.59,0.28,3.64,0.83c1.05,0.55,1.87,1.32,2.45,2.3c0.58,0.98,0.87,2.11,0.87,3.37
					c0,1.26-0.29,2.39-0.87,3.37c-0.58,0.98-1.4,1.75-2.45,2.3c-1.05,0.55-2.27,0.83-3.64,0.83h-5.29V65.5z M212.81,77.31
					c1.14,0,2.14-0.23,2.99-0.68c0.85-0.45,1.52-1.08,1.99-1.87c0.47-0.8,0.7-1.72,0.7-2.76c0-1.04-0.23-1.96-0.7-2.76
					c-0.47-0.8-1.13-1.42-1.99-1.88c-0.85-0.45-1.85-0.68-2.99-0.68h-3.84v10.62H212.81z"/>
				<path class="st0" d="M230.63,77.31v1.19h-9.19v-13h8.91v1.19h-7.54v4.62h6.72v1.17h-6.72v4.83H230.63z"/>
				<path class="st0" d="M237.92,77.76c-1.03-0.57-1.84-1.36-2.43-2.37c-0.59-1.01-0.88-2.14-0.88-3.39c0-1.25,0.29-2.38,0.88-3.39
					c0.59-1.01,1.4-1.8,2.44-2.37c1.04-0.57,2.2-0.85,3.49-0.85c0.96,0,1.86,0.16,2.67,0.48c0.82,0.32,1.51,0.79,2.08,1.41
					l-0.87,0.87c-1.02-1.03-2.3-1.54-3.84-1.54c-1.03,0-1.96,0.23-2.8,0.7c-0.84,0.47-1.5,1.11-1.98,1.93
					c-0.48,0.82-0.72,1.73-0.72,2.75c0,1.02,0.24,1.93,0.72,2.75c0.48,0.82,1.14,1.46,1.98,1.93c0.84,0.47,1.78,0.7,2.8,0.7
					c1.56,0,2.84-0.52,3.84-1.56l0.87,0.87c-0.57,0.62-1.27,1.09-2.09,1.42s-1.72,0.49-2.68,0.49
					C240.12,78.61,238.96,78.33,237.92,77.76z"/>
				<path class="st0" d="M249.53,77.75c-1.04-0.57-1.86-1.36-2.45-2.37c-0.59-1-0.88-2.13-0.88-3.38c0-1.25,0.29-2.38,0.88-3.38
					c0.59-1,1.41-1.79,2.45-2.37c1.05-0.58,2.21-0.86,3.5-0.86c1.29,0,2.45,0.28,3.48,0.85c1.03,0.57,1.85,1.36,2.44,2.37
					c0.59,1.01,0.89,2.14,0.89,3.39c0,1.25-0.3,2.38-0.89,3.39c-0.6,1.01-1.41,1.8-2.44,2.37c-1.04,0.57-2.2,0.85-3.48,0.85
					C251.74,78.61,250.57,78.33,249.53,77.75z M255.81,76.69c0.83-0.47,1.48-1.11,1.95-1.93c0.47-0.82,0.7-1.74,0.7-2.76
					c0-1.01-0.23-1.93-0.7-2.76c-0.47-0.82-1.12-1.47-1.95-1.93c-0.83-0.47-1.76-0.7-2.78-0.7c-1.03,0-1.96,0.23-2.8,0.7
					c-0.84,0.47-1.49,1.11-1.97,1.93c-0.48,0.82-0.72,1.74-0.72,2.76c0,1.02,0.24,1.94,0.72,2.76c0.48,0.82,1.13,1.47,1.97,1.93
					c0.83,0.47,1.77,0.7,2.8,0.7C254.06,77.39,254.99,77.16,255.81,76.69z"/>
				<path class="st0" d="M265.34,74.01v4.49h-1.35v-4.49l-5.2-8.5h1.47l4.45,7.3l4.46-7.3h1.37L265.34,74.01z"/>
				<path class="st0" d="M272.81,77.75c-1.04-0.57-1.86-1.36-2.45-2.37c-0.59-1-0.88-2.13-0.88-3.38c0-1.25,0.29-2.38,0.88-3.38
					c0.59-1,1.41-1.79,2.45-2.37c1.05-0.58,2.21-0.86,3.5-0.86c1.29,0,2.45,0.28,3.48,0.85c1.03,0.57,1.85,1.36,2.44,2.37
					c0.59,1.01,0.89,2.14,0.89,3.39c0,1.25-0.3,2.38-0.89,3.39c-0.6,1.01-1.41,1.8-2.44,2.37c-1.04,0.57-2.2,0.85-3.48,0.85
					C275.03,78.61,273.86,78.33,272.81,77.75z M279.1,76.69c0.83-0.47,1.48-1.11,1.95-1.93c0.47-0.82,0.7-1.74,0.7-2.76
					c0-1.01-0.23-1.93-0.7-2.76c-0.47-0.82-1.12-1.47-1.95-1.93c-0.83-0.47-1.76-0.7-2.78-0.7c-1.03,0-1.96,0.23-2.8,0.7
					c-0.84,0.47-1.49,1.11-1.97,1.93c-0.48,0.82-0.72,1.74-0.72,2.76c0,1.02,0.24,1.94,0.72,2.76c0.48,0.82,1.13,1.47,1.97,1.93
					c0.83,0.47,1.77,0.7,2.8,0.7C277.34,77.39,278.27,77.16,279.1,76.69z"/>
				<path class="st0" d="M292.69,75.03h-7.24l-1.56,3.47h-1.43l5.94-13h1.35l5.94,13h-1.45L292.69,75.03z M292.19,73.91l-3.12-6.98
					l-3.12,6.98H292.19z"/>
				<path class="st0" d="M298.34,77.76c-1.03-0.57-1.84-1.36-2.43-2.37c-0.59-1.01-0.88-2.14-0.88-3.39c0-1.25,0.29-2.38,0.88-3.39
					c0.59-1.01,1.4-1.8,2.44-2.37c1.04-0.57,2.2-0.85,3.49-0.85c0.96,0,1.86,0.16,2.67,0.48c0.82,0.32,1.51,0.79,2.08,1.41
					l-0.87,0.87c-1.02-1.03-2.3-1.54-3.84-1.54c-1.03,0-1.96,0.23-2.8,0.7c-0.84,0.47-1.5,1.11-1.98,1.93
					c-0.48,0.82-0.72,1.73-0.72,2.75c0,1.02,0.24,1.93,0.72,2.75c0.48,0.82,1.14,1.46,1.98,1.93s1.78,0.7,2.8,0.7
					c1.56,0,2.84-0.52,3.84-1.56l0.87,0.87c-0.57,0.62-1.27,1.09-2.09,1.42s-1.72,0.49-2.68,0.49
					C300.54,78.61,299.38,78.33,298.34,77.76z"/>
				<path class="st0" d="M315.86,75.03h-7.24l-1.56,3.47h-1.43l5.94-13h1.35l5.94,13h-1.45L315.86,75.03z M315.36,73.91l-3.12-6.98
					l-3.12,6.98H315.36z M313.6,62.14h1.76l-3.01,2.3h-1.3L313.6,62.14z"/>
				<path class="st0" d="M330.4,65.5v13h-1.13l-8.36-10.55V78.5h-1.37v-13h1.13l8.37,10.55V65.5H330.4z"/>
			</g>
		</g>
		<line class="st1" x1="175.52" y1="15.24" x2="175.52" y2="84.76"/>
	</g>
	<path id="XMLID_1_" d="M21.11,74.37h-1.25v5.28h3.03l-0.17-1.17h-1.61C21.11,78.47,21.11,74.37,21.11,74.37z M26.39,74.37h-1.44
		l-1.88,5.28h1.25l0.37-1.08h1.78l0.44,1.17l1.34-0.17L26.39,74.37L26.39,74.37z M24.98,77.5l0.54-1.88l0.64,1.88H24.98L24.98,77.5z
		 M33.02,74.37h-1.34v3.76c-0.37,0.27-0.71,0.44-1.08,0.44c-0.44,0-0.71-0.27-0.71-0.81v-3.4h-1.34v3.57c0,1.25,0.64,1.71,1.61,1.71
		c0.54,0,1.08-0.17,1.52-0.54l0.1,0.44h1.08v-5.18L33.02,74.37L33.02,74.37z M35.7,74.37h-1.88v5.18h1.34v-1.78h0.37l1.17,1.88
		l1.34-0.17l-1.25-1.88c0.64-0.27,0.98-0.81,0.98-1.52C37.76,74.98,37.02,74.37,35.7,74.37 M35.24,76.86v-1.52h0.44
		c0.54,0,0.9,0.27,0.9,0.71c0,0.44-0.37,0.81-0.9,0.81L35.24,76.86L35.24,76.86z M41.77,74.37h-3.23v5.28h3.3v-1.08h-2.05V77.4h1.61
		l-0.1-0.98h-1.52v-0.98h1.96C41.77,75.44,41.77,74.37,41.77,74.37z M45.43,74.37h-1.44l-1.88,5.28h1.25l0.37-1.08h1.78l0.44,1.17
		l1.34-0.17C47.31,79.55,45.43,74.37,45.43,74.37z M44.09,77.5l0.64-1.88l0.54,1.88H44.09L44.09,77.5z M51.62,74.37h-4.11v1.08h1.44
		v4.2h1.34v-4.2h1.52L51.62,74.37z M55.55,74.37h-3.23v5.28h3.3v-1.08h-2.05V77.4h1.71l-0.17-0.98h-1.54v-0.98h1.96
		C55.55,75.44,55.55,74.37,55.55,74.37z M57.87,74.37h1.34v5.18h-1.34V74.37z M64.5,74.37h-1.25v2.96l-1.88-2.96h-1.34v5.28h1.25
		v-3.13l2.05,3.13h1.17V74.37L64.5,74.37z M69.21,74.37h-4.18v1.08h1.52v4.2h1.25v-4.2h1.61L69.21,74.37L69.21,74.37z M73.15,74.37
		h-3.3v5.28h3.3v-1.08h-1.96V77.4h1.61l-0.1-0.98h-1.52v-0.98h1.96V74.37L73.15,74.37z M75.67,74.37h-1.88v5.18h1.34v-1.78h0.37
		l1.17,1.88l1.34-0.17l-1.25-1.88c0.64-0.27,0.98-0.81,0.98-1.52C77.72,74.98,77.01,74.37,75.67,74.37 M75.13,76.86v-1.52h0.44
		c0.54,0,0.9,0.27,0.9,0.71c0,0.44-0.37,0.81-0.9,0.81L75.13,76.86L75.13,76.86z M82.83,74.37h-1.17v2.96l-1.88-2.96h-1.34v5.28
		h1.25v-3.13l2.05,3.13h1.08v-5.28H82.83z M86.67,74.37h-1.44l-1.88,5.28h1.25l0.37-1.08h1.78l0.44,1.17l1.34-0.17L86.67,74.37
		L86.67,74.37z M85.32,77.5l0.64-1.88l0.54,1.88H85.32L85.32,77.5z M92.83,74.37h-4.11v1.08h1.44v4.2h1.34v-4.2h1.52L92.83,74.37
		L92.83,74.37z M93.63,74.37h1.34v5.18h-1.34V74.37z M98.1,74.27c-1.52,0-2.49,1.08-2.49,2.76c0,1.61,0.98,2.69,2.42,2.69h0.1
		c1.52,0,2.49-1.08,2.49-2.76C100.62,75.44,99.62,74.27,98.1,74.27 M98.1,78.74c-0.71,0-1.17-0.64-1.17-1.71s0.44-1.71,1.17-1.71
		c0.81,0,1.17,0.64,1.17,1.71C99.35,78.03,98.81,78.74,98.1,78.74 M105.71,74.37h-1.17v2.96l-1.96-2.96h-1.34v5.28h1.25v-3.13
		l2.05,3.13h1.17V74.37L105.71,74.37z M109.54,74.37h-1.44l-1.88,5.28h1.25l0.37-1.08h1.78l0.44,1.17l1.34-0.17L109.54,74.37
		L109.54,74.37z M108.13,77.5l0.54-1.88l0.54,1.88H108.13z M113.14,74.37h-1.34v5.28h3.13l-0.17-1.17h-1.61V74.37z M121.28,74.37
		h-1.25v3.76c-0.37,0.27-0.71,0.44-1.08,0.44c-0.44,0-0.71-0.27-0.71-0.81v-3.4h-1.34v3.57c0,1.25,0.64,1.71,1.61,1.71
		c0.54,0,1.08-0.17,1.52-0.54l0.1,0.44h1.08L121.28,74.37L121.28,74.37z M126.55,74.37h-1.17v2.96l-1.96-2.96h-1.25v5.28h1.25v-3.13
		l2.05,3.13h1.08V74.37z M127.43,74.37h1.34v5.18h-1.34V74.37z M130.76,74.37l-1.44,0.17l1.78,5.11h1.44l1.88-5.28h-1.34l-1.17,3.67
		L130.76,74.37z M138.16,74.37h-3.3v5.28h3.4v-1.08h-2.05V77.4h1.61l-0.1-0.98h-1.52v-0.98h1.96V74.37L138.16,74.37z M140.68,74.37
		h-1.88v5.18h1.34v-1.78h0.37l1.17,1.88l1.34-0.17l-1.25-1.88c0.64-0.27,0.98-0.81,0.98-1.52
		C142.73,74.98,142.03,74.37,140.68,74.37 M140.14,76.86v-1.52h0.44c0.54,0,0.9,0.27,0.9,0.71c0,0.44-0.37,0.81-0.9,0.81
		L140.14,76.86L140.14,76.86z M145.15,74.37c-0.98,0-1.78,0.54-1.78,1.52c0,0.9,0.44,1.25,1.52,1.61c0.71,0.27,0.9,0.44,0.9,0.71
		c0,0.37-0.27,0.44-0.64,0.44c-0.54,0-1.08-0.17-1.71-0.44l-0.17,1.08c0.54,0.27,1.25,0.44,1.88,0.44c1.08,0,1.88-0.44,1.88-1.61
		c0-0.81-0.44-1.25-1.61-1.61c-0.64-0.27-0.81-0.37-0.81-0.64s0.17-0.44,0.54-0.44c0.44,0,0.9,0.17,1.34,0.44l0.17-1.08
		C146.3,74.46,145.86,74.37,145.15,74.37 M147.65,74.37h1.34v5.18h-1.34V74.37z M153.73,74.37l0.17,1.08h-1.61v4.2h-1.25v-4.2h-1.52
		v-1.08H153.73L153.73,74.37z M154.44,74.37h1.34v5.18h-1.34V74.37z M159.89,74.37h-3.3v5.28h3.4v-1.08h-2.05V77.4h1.71l-0.17-0.98
		h-1.52v-0.98h1.96L159.89,74.37L159.89,74.37z M162.31,74.37c-0.98,0-1.78,0.54-1.78,1.52c0,0.9,0.44,1.25,1.52,1.61
		c0.71,0.27,0.9,0.44,0.9,0.71c0,0.37-0.27,0.44-0.64,0.44c-0.54,0-1.08-0.17-1.71-0.44l-0.17,1.08c0.54,0.27,1.25,0.44,1.88,0.44
		c1.08,0,1.88-0.44,1.88-1.61c0-0.81-0.44-1.25-1.61-1.61c-0.64-0.27-0.81-0.37-0.81-0.64s0.17-0.44,0.54-0.44
		c0.44,0,0.9,0.17,1.44,0.44l0.17-1.08C163.39,74.46,162.95,74.37,162.31,74.37 M165.27,74.71c-0.44,0-0.81,0.37-0.81,0.81
		c0,0.44,0.37,0.81,0.81,0.81c0.44,0,0.81-0.37,0.81-0.81C166.08,75.08,165.71,74.71,165.27,74.71 M165.27,76.25
		c-0.37,0-0.64-0.27-0.64-0.71c0-0.44,0.27-0.71,0.64-0.71c0.37,0,0.64,0.27,0.64,0.71C165.88,75.98,165.61,76.25,165.27,76.25
		 M165.27,75.08h-0.37v0.9h0.27v-0.37l0.17,0.37h0.27l-0.17-0.37c0.1,0,0.17-0.1,0.17-0.27S165.44,75.08,165.27,75.08 M165.17,75.44
		v-0.17h0.1c0.1,0,0.1,0,0.1,0.1C165.34,75.44,165.34,75.44,165.17,75.44z M19.6,65.96h146.65v0.71H19.6L19.6,65.96L19.6,65.96z
		 M19.6,21.79v23.78c0,2.96,0.64,6.53,4.03,9.21c4.11,3.23,10.73,3.57,15.47,3.57c5.28,0,11.44-0.54,15.37-3.23
		c4.11-2.69,4.64-6.16,4.64-9.65V21.77c-4.03,0-7.5,1.25-9.12,3.03v19.41c0,1.88,0,4.3-2.59,5.89c-1.88,1.17-4.91,1.44-8.41,1.44
		c-2.76,0-5.82-0.1-7.7-1.34c-2.22-1.44-2.32-3.4-2.32-5.38V24.77C27.2,23.04,23.7,21.79,19.6,21.79 M113.4,21.79
		c-4.64,0-8.58,1.25-10.46,3.03l-14.4,21.83l-14.4-21.83c-1.88-1.78-5.82-3.03-10.36-3.03H60.9l24.51,36.56h6.43l24.59-36.56H113.4z
		 M165.81,21.79c-4.11,0-7.7,1.25-9.29,3.03l-14.23,15.64L128.17,24.9c-1.61-1.88-5.18-3.13-9.39-3.13h-0.44v36.56h9.04V35.7
		l14.84,16.89l14.84-16.89v22.71h9.21V21.74h-0.46V21.79z"/>
</g>
</svg>
