<?xml version="1.0" encoding="utf-8"?>
<!-- Generator: Adobe Illustrator 27.2.0, SVG Export Plug-In . SVG Version: 6.00 Build 0)  -->
<svg version="1.1" id="Layer_1" xmlns="http://www.w3.org/2000/svg" xmlns:xlink="http://www.w3.org/1999/xlink" x="0px" y="0px"
	 viewBox="0 0 600 180" style="enable-background:new 0 0 600 180;" xml:space="preserve">
<style type="text/css">
	.st0{fill:#FFFFFF;}
</style>
<g>
	<g>
		<g>
			<g>
				<path class="st0" d="M234.07,122.88v1.36h-10.55v-14.92h10.23v1.36h-8.65V116h7.72v1.34h-7.72v5.54H234.07z"/>
			</g>
			<g>
				<path class="st0" d="M253.78,125.51c-0.92,1.11-2.17,1.71-3.62,1.71c-1.75,0-3.2-0.79-5.16-2.83c-4.37-0.13-7.57-3.33-7.57-7.59
					c0-4.35,3.33-7.59,7.84-7.59c4.48,0,7.82,3.22,7.82,7.59c0,3.82-2.54,6.74-6.16,7.44c1.13,1.19,2.17,1.73,3.24,1.73
					c1.13,0,2.05-0.45,2.83-1.36L253.78,125.51z M245.28,122.97c3.58,0,6.25-2.64,6.25-6.18s-2.66-6.18-6.25-6.18
					c-3.6,0-6.29,2.64-6.29,6.18S241.68,122.97,245.28,122.97z"/>
			</g>
			<g>
				<path class="st0" d="M257.58,117.87v-8.55h1.58v8.48c0,3.54,1.66,5.16,4.56,5.16c2.92,0,4.58-1.62,4.58-5.16v-8.48h1.53v8.55
					c0,4.28-2.3,6.5-6.12,6.5C259.9,124.38,257.58,122.16,257.58,117.87z"/>
			</g>
			<g>
				<path class="st0" d="M275.65,109.33h1.58v14.92h-1.58V109.33z"/>
			</g>
			<g>
				<path class="st0" d="M295.63,109.33v14.92h-1.3l-9.59-12.11v12.11h-1.58v-14.92h1.3l9.61,12.11v-12.11H295.63z"/>
			</g>
			<g>
				<path class="st0" d="M312.1,122.88v1.36h-10.55v-14.92h10.23v1.36h-8.65V116h7.72v1.34h-7.72v5.54H312.1z"/>
			</g>
			<g>
				<path class="st0" d="M336,109.33v14.92h-1.3l-9.59-12.11v12.11h-1.58v-14.92h1.3l9.61,12.11v-12.11H336z"/>
			</g>
			<g>
				<path class="st0" d="M341.79,117.87v-8.55h1.58v8.48c0,3.54,1.66,5.16,4.56,5.16c2.92,0,4.58-1.62,4.58-5.16v-8.48h1.53v8.55
					c0,4.28-2.3,6.5-6.12,6.5C344.12,124.38,341.79,122.16,341.79,117.87z"/>
			</g>
			<g>
				<path class="st0" d="M362.47,110.69h-5.24v-1.36h12.06v1.36h-5.24v13.56h-1.58V110.69z"/>
			</g>
			<g>
				<path class="st0" d="M383.06,124.25l-3.41-4.8c-0.38,0.04-0.77,0.06-1.19,0.06h-4.01v4.73h-1.58v-14.92h5.58
					c3.79,0,6.1,1.92,6.1,5.12c0,2.34-1.24,3.99-3.41,4.69l3.65,5.12H383.06z M382.97,114.44c0-2.39-1.58-3.75-4.56-3.75h-3.96v7.48
					h3.96C381.4,118.17,382.97,116.79,382.97,114.44z"/>
			</g>
			<g>
				<path class="st0" d="M389.35,109.33h1.58v14.92h-1.58V109.33z"/>
			</g>
			<g>
				<path class="st0" d="M399.75,110.69h-5.24v-1.36h12.06v1.36h-5.24v13.56h-1.58V110.69z"/>
			</g>
			<g>
				<path class="st0" d="M410.15,109.33h1.58v14.92h-1.58V109.33z"/>
			</g>
			<g>
				<path class="st0" d="M416.33,116.79c0-4.35,3.33-7.59,7.84-7.59c4.48,0,7.82,3.22,7.82,7.59c0,4.37-3.35,7.59-7.82,7.59
					C419.66,124.38,416.33,121.14,416.33,116.79z M430.42,116.79c0-3.56-2.66-6.18-6.25-6.18c-3.6,0-6.29,2.62-6.29,6.18
					c0,3.56,2.69,6.18,6.29,6.18C427.76,122.97,430.42,120.35,430.42,116.79z"/>
			</g>
			<g>
				<path class="st0" d="M449.07,109.33v14.92h-1.3l-9.59-12.11v12.11h-1.58v-14.92h1.3l9.61,12.11v-12.11H449.07z"/>
			</g>
			<g>
				<path class="st0" d="M471,120.26h-8.31l-1.79,3.99h-1.64l6.82-14.92h1.56l6.82,14.92h-1.66L471,120.26z M470.43,118.98
					l-3.58-8.02l-3.58,8.02H470.43z"/>
			</g>
			<g>
				<path class="st0" d="M490.47,109.33v14.92h-1.3l-9.59-12.11v12.11H478v-14.92h1.3l9.61,12.11v-12.11H490.47z"/>
			</g>
			<g>
				<path class="st0" d="M496.39,109.33h6.08c4.77,0,7.99,3.07,7.99,7.46s-3.22,7.46-7.99,7.46h-6.08V109.33z M502.38,122.88
					c3.96,0,6.52-2.52,6.52-6.1c0-3.58-2.56-6.1-6.52-6.1h-4.41v12.19H502.38z"/>
			</g>
			<g>
				<path class="st0" d="M523.29,110.69v5.86h7.72v1.36h-7.72v6.33h-1.58v-14.92h10.23v1.36H523.29z"/>
			</g>
			<g>
				<path class="st0" d="M534.76,116.79c0-4.35,3.33-7.59,7.84-7.59c4.48,0,7.82,3.22,7.82,7.59c0,4.37-3.35,7.59-7.82,7.59
					C538.08,124.38,534.76,121.14,534.76,116.79z M548.85,116.79c0-3.56-2.66-6.18-6.25-6.18c-3.6,0-6.29,2.62-6.29,6.18
					c0,3.56,2.69,6.18,6.29,6.18C546.18,122.97,548.85,120.35,548.85,116.79z"/>
			</g>
			<g>
				<path class="st0" d="M553.71,116.79c0-4.35,3.33-7.59,7.84-7.59c4.48,0,7.82,3.22,7.82,7.59c0,4.37-3.35,7.59-7.82,7.59
					C557.03,124.38,553.71,121.14,553.71,116.79z M567.8,116.79c0-3.56-2.66-6.18-6.25-6.18c-3.6,0-6.29,2.62-6.29,6.18
					c0,3.56,2.69,6.18,6.29,6.18C565.13,122.97,567.8,120.35,567.8,116.79z"/>
			</g>
			<g>
				<path class="st0" d="M573.98,109.33h6.08c4.77,0,7.99,3.07,7.99,7.46s-3.22,7.46-7.99,7.46h-6.08V109.33z M579.97,122.88
					c3.96,0,6.52-2.52,6.52-6.1c0-3.58-2.56-6.1-6.52-6.1h-4.41v12.19H579.97z"/>
			</g>
		</g>
		<g>
			<g>
				<path class="st0" d="M263.19,90.48V52.49h3.67v42.92h-3.67l-35.4-38.05v38.05h-3.67V52.49h3.67L263.19,90.48z"/>
			</g>
			<g>
				<path class="st0" d="M315.66,80.11h-36.53v15.3h-3.79V72.53c0-15.68,7.84-21.17,22.06-21.17c14.28,0,22.12,5.5,22.12,21.17
					v22.88h-3.86V80.11z M315.66,76.83v-4.05c0-11.82-4.87-18.08-18.39-18.08c-13.27,0-18.14,6.26-18.14,18.08v4.05H315.66z"/>
			</g>
			<g>
				<path class="st0" d="M327.98,95.41V52.49h37.61l-0.19,3.16h-33.63V72.4h31.6l-0.19,3.03h-31.41v16.81h33.82l-0.19,3.16H327.98z"
					/>
			</g>
			<g>
				<path class="st0" d="M421.88,99.29c-1.4,1.71-3.06,3.02-4.97,3.92c-1.91,0.9-3.98,1.35-6.22,1.35c-2.72,0-5.3-0.67-7.73-2.01
					c-2.43-1.34-5.17-3.59-8.19-6.74c-4.43-0.13-8.42-1.23-11.98-3.29c-3.55-2.06-6.34-4.85-8.36-8.36
					c-2.02-3.51-3.03-7.44-3.03-11.78c0-4.43,1.04-8.42,3.13-11.98c2.08-3.55,4.98-6.35,8.69-8.39c3.71-2.04,7.84-3.06,12.41-3.06
					c4.56,0,8.67,1.01,12.34,3.03c3.66,2.02,6.55,4.81,8.65,8.39c2.1,3.58,3.16,7.58,3.16,12.01c0,3.86-0.8,7.4-2.4,10.63
					c-1.6,3.22-3.84,5.91-6.71,8.06c-2.87,2.15-6.18,3.58-9.9,4.28c3.38,3.55,6.71,5.33,10,5.33c3.42,0,6.34-1.4,8.75-4.21
					L421.88,99.29z M378.75,82.12c1.69,2.9,4.02,5.18,6.97,6.84c2.96,1.67,6.26,2.5,9.9,2.5c3.64,0,6.93-0.83,9.87-2.5
					c2.94-1.67,5.24-3.95,6.91-6.84c1.67-2.9,2.5-6.14,2.5-9.74c0-3.6-0.83-6.84-2.5-9.74c-1.67-2.9-3.97-5.18-6.91-6.84
					c-2.94-1.67-6.23-2.5-9.87-2.5c-3.64,0-6.94,0.83-9.9,2.5c-2.96,1.67-5.29,3.95-6.97,6.84c-1.69,2.9-2.53,6.14-2.53,9.74
					C376.22,75.97,377.06,79.22,378.75,82.12z"/>
			</g>
			<g>
				<path class="st0" d="M431.16,75.31c0,13.27,6.32,17.89,18.14,17.89c11.82,0,18.27-4.61,18.27-17.89V52.49h3.73v22.88
					c0,14.66-6.64,21.17-21.93,21.17c-15.3,0-22-6.51-22-21.17V52.49h3.79V75.31z"/>
			</g>
			<g>
				<path class="st0" d="M483.56,95.41h-3.79V52.49h3.79V95.41z"/>
			</g>
			<g>
				<path class="st0" d="M531.22,90.48V52.49h3.67v42.92h-3.67l-35.4-38.05v38.05h-3.67V52.49h3.67L531.22,90.48z"/>
			</g>
			<g>
				<path class="st0" d="M583.68,80.11h-36.53v15.3h-3.79V72.53c0-15.68,7.84-21.17,22.06-21.17c14.28,0,22.12,5.5,22.12,21.17
					v22.88h-3.86V80.11z M583.68,76.83v-4.05c0-11.82-4.87-18.08-18.39-18.08c-13.27,0-18.14,6.26-18.14,18.08v4.05H583.68z"/>
			</g>
		</g>
		<g>
			<rect x="192.93" y="20.06" class="st0" width="1.11" height="139.87"/>
		</g>
	</g>
	<g>
		<g>
			<g>
				<g>
					<path class="st0" d="M103.47,148.81h-6.66c-0.63,0-1.14-0.51-1.14-1.14c0-6.27-8.31-10.86-15.64-14.91
						c-6.52-3.6-12.14-6.71-12.14-10.91c0-1.18,0.64-2.57,1.38-4.18c1.01-2.2,2.15-4.69,1.98-7.13c-0.03-0.36,0.12-0.7,0.39-0.94
						c3.24-2.84,9.2-8.38,12.76-13.53c0.22-0.32,0.6-0.5,0.98-0.49c1.54,0.06,3.75,0.67,7.38,2.05c0.43,0.16,0.72,0.56,0.74,1.02
						c0.09,2.05,0.14,4.19,0.14,6.55c0,7.66-4.97,11.92-7.93,14.47c-0.79,0.67-1.84,1.58-2.06,2.01c0.01,0.01,0.03,0.03,0.05,0.05
						c17.69,13.15,20.77,25.17,20.89,25.68c0.08,0.34,0,0.7-0.21,0.97C104.15,148.65,103.82,148.81,103.47,148.81z M97.88,146.52
						h3.99c-1.36-3.48-6.05-12.93-19.59-23c-0.79-0.64-0.96-1.31-0.97-1.77c-0.02-1.33,1.2-2.38,2.88-3.82
						c2.84-2.44,7.14-6.12,7.14-12.74c0-2.04-0.03-3.91-0.1-5.7c-1.84-0.68-3.89-1.38-5.36-1.58c-3.57,4.97-9.06,10.14-12.33,13.04
						c0.02,2.81-1.21,5.49-2.2,7.66c-0.6,1.31-1.17,2.55-1.17,3.23c0,2.85,5.57,5.93,10.96,8.91
						C88.61,134.89,97.04,139.55,97.88,146.52z M83.57,121.61L83.57,121.61L83.57,121.61z"/>
				</g>
			</g>
			<g>
				<g>
					<path class="st0" d="M24.05,110.27c-3.06,0-8.7-3.15-11.88-7.68c-0.21-0.29-0.26-0.67-0.15-1.01c0.11-0.34,0.37-0.61,0.71-0.73
						c6.39-2.24,8.67-8.99,11.09-16.14c0.34-1.01,0.68-2.02,1.04-3.02c2.78-7.86,6.74-16.25,18.58-16.42c6.2,0,11.93,3.29,16.58,9.5
						c0.36,0.48,0.29,1.15-0.17,1.55c-2.02,1.75-3.33,3.96-3.9,6.59c-0.08,0.35-0.32,0.65-0.65,0.8c-0.33,0.15-0.71,0.13-1.03-0.05
						c-1.35-0.76-2.95-1.07-4.78-0.93c-2.44,0.32-4.36,1.63-6,4.12c-1.45,2.2-2.48,5.01-3.58,7.98
						C37.24,102.06,34.21,110.27,24.05,110.27z M14.92,102.41c2.93,3.44,7.18,5.57,9.13,5.57c8.57,0,11.07-6.78,13.72-13.95
						c1.09-2.96,2.22-6.02,3.81-8.44c2-3.05,4.51-4.73,7.67-5.14c1.78-0.14,3.39,0.06,4.83,0.6c0.69-2.19,1.86-4.1,3.48-5.72
						c-4.12-5.16-8.86-7.77-14.11-7.77C33.08,67.71,29.75,74.69,27,82.46c-0.35,0.99-0.69,1.99-1.03,2.99
						C23.66,92.3,21.26,99.37,14.92,102.41z"/>
				</g>
			</g>
			<g>
				<g>
					<path class="st0" d="M125.96,148.81h-4.19c-0.63,0-1.14-0.51-1.14-1.14c0-21.82-7.8-30.08-7.88-30.16
						c-0.21-0.21-0.33-0.5-0.33-0.8v-10.43c-4.46-0.17-10.83-2.7-16.47-4.95c-1.39-0.55-2.74-1.09-4.01-1.57
						c-2.53-1-5.68-2.01-6.38-1.92c-0.46,0.11-0.92-0.09-1.19-0.48c-0.26-0.39-0.25-0.9,0.02-1.29c1.19-1.73,1.99-3.24,2.37-4.5
						c0.17-0.56,0.25-1.06,0.25-1.46c0-8.16-1.98-17.52-17.38-17.52c-0.58,0-1.07-0.43-1.13-1.01c-0.07-0.57,0.3-1.11,0.87-1.24
						c4.46-1.07,11.02-0.8,19.32-0.45c4.8,0.2,10.24,0.42,16.16,0.42c13.95,0,15.2-4.1,16.4-8.06c0.11-0.36,0.22-0.71,0.33-1.06
						c0.81-2.44-0.39-5.55-1.33-7.42c-1.03,1.37-2.3,2.27-3.81,2.71c-2.95,0.85-5.87-0.41-6.97-0.99l-5.5,1.52
						c-1.72,0.47-3.03-0.82-3.53-1.65l-3.48-5.69c-0.03-0.05-0.06-0.1-0.08-0.15c-0.64-1.52-0.65-3.37,0.78-4.06
						c1.1-0.53,34.31-14.97,35.72-15.59c0.51-0.22,1.1-0.05,1.41,0.42c0.31,0.46,0.24,1.08-0.16,1.46c-1.4,1.33-2.97,2.9-3.86,3.89
						c20.41,8.72,20.81,31.41,20.81,31.64c0,9.26-2.77,16.23-4.27,19.31h14.35c0.63,0,1.14,0.51,1.14,1.14
						c0,27.79-23.13,36.67-23.37,36.76c-0.3,0.11-0.64,0.09-0.92-0.06c-0.29-0.15-0.5-0.41-0.58-0.73l-1.17-4.52
						c-0.15-0.57,0.16-1.15,0.7-1.36c10.98-4.11,11.98-12.47,11.93-15.7c-5.89,1.55-15.34,1.78-18.13,1.81l-4.16,10.48v33.25
						C127.1,148.3,126.59,148.81,125.96,148.81z M122.91,146.52h1.91v-32.33c0-0.14,0.03-0.29,0.08-0.42l4.52-11.39
						c0.17-0.43,0.59-0.72,1.06-0.72c0.13,0,13.46-0.03,19.57-2.12c0.32-0.11,0.66-0.07,0.95,0.1c0.29,0.17,0.49,0.46,0.54,0.79
						c0.02,0.13,2.07,13.17-12.33,19.15l0.58,2.25c1.91-0.9,5.89-3.06,9.81-6.91c6.98-6.83,10.64-15.6,10.88-26.06h-15.1
						c-0.41,0-0.79-0.22-1-0.58s-0.19-0.8,0.02-1.15c0.05-0.08,4.86-8.11,4.86-19.85c0-0.21-0.43-22.33-20.66-30.05
						c-0.37-0.14-0.67-0.5-0.74-0.88c-0.08-0.38-0.14-0.71,0.99-2.03c-12.02,5.23-28.55,12.43-30.11,13.14
						c-0.03,0.22,0.06,0.71,0.21,1.1l3.43,5.61c0,0.01,0.5,0.77,0.97,0.64l5.95-1.64c0.31-0.09,0.63-0.04,0.91,0.13
						c0.03,0.02,2.93,1.77,5.61,0.98c1.43-0.42,2.59-1.52,3.44-3.27c0.18-0.37,0.54-0.61,0.95-0.64c0.41-0.03,0.8,0.17,1.03,0.51
						c0.17,0.25,4.08,6.25,2.5,11.03c-0.11,0.33-0.21,0.67-0.32,1.01c-1.31,4.31-2.94,9.68-18.58,9.68
						c-5.97,0-11.44-0.23-16.26-0.42c-3.47-0.14-6.63-0.27-9.44-0.3c10.14,3.95,10.14,14.32,10.14,18.25c0,0.64-0.11,1.33-0.35,2.12
						c-0.32,1.07-0.88,2.27-1.66,3.57c1.77,0.41,4.01,1.24,5.49,1.83c1.27,0.48,2.63,1.02,4.03,1.58c5.66,2.25,12.07,4.8,16.1,4.8
						h0.67c0.63,0,1.14,0.51,1.14,1.14v11.12C116.27,118.1,122.67,126.78,122.91,146.52z"/>
				</g>
			</g>
		</g>
		<g>
			<g>
				<path class="st0" d="M60.82,150.23h-5.5c-0.31,0-0.61-0.13-0.83-0.36c-0.22-0.23-0.33-0.53-0.31-0.84
					c0.38-7.49-3.53-18.34-5.87-24.83c-1.24-3.45-1.89-5.29-1.99-6.32c-0.22-2.45,1.9-4.32,3.95-6.12c1.21-1.06,2.46-2.16,3.25-3.36
					c1.12-1.68,0.75-5.96,0.33-10.91c-0.31-3.65-0.66-7.78-0.54-12.03C53.63,74.01,64.44,70.3,69.63,70.3
					c19.66,0,19.66,14.91,19.66,19.81c0,8.88-22.19,26.9-27.72,29.99c-1.3,1.75-0.81,16.29,0.39,28.88
					c0.03,0.32-0.08,0.64-0.29,0.88C61.45,150.09,61.14,150.23,60.82,150.23z M56.49,147.94h3.08c-0.21-2.36-0.65-7.73-0.89-13.16
					c-0.68-15.24,0.85-16.14,1.67-16.63c6.17-3.37,26.65-20.92,26.65-28.05c0-8.16-1.98-17.52-17.38-17.52
					c-4.46,0-13.77,3.16-14.03,12.94c-0.11,4.13,0.23,8.19,0.54,11.78c0.47,5.61,0.85,10.03-0.71,12.37
					c-0.96,1.45-2.33,2.65-3.65,3.8c-1.7,1.49-3.3,2.9-3.18,4.2c0.07,0.78,0.9,3.08,1.86,5.75
					C52.88,130.15,56.48,140.14,56.49,147.94z"/>
			</g>
		</g>
	</g>
</g>
</svg>
