<?xml version="1.0" encoding="utf-8"?>
<!-- Generator: Adobe Illustrator 27.2.0, SVG Export Plug-In . SVG Version: 6.00 Build 0)  -->
<svg version="1.1" id="Layer_1" xmlns="http://www.w3.org/2000/svg" xmlns:xlink="http://www.w3.org/1999/xlink" x="0px" y="0px"
	 viewBox="0 0 280 100" style="enable-background:new 0 0 280 100;" xml:space="preserve">
<g>
	<path d="M58.83,46.94c-0.86,0.99-1.45,1.77-1.77,2.34c-0.32,0.57-0.61,1.39-0.86,2.44l-1.91,7.55c-0.22,1.02-0.4,1.85-0.53,2.48
		c-0.13,0.64-0.19,1.15-0.19,1.53c0,0.38,0.02,0.65,0.07,0.81c0.05,0.16,0.18,0.56,0.41,1.19H43.78l0.33-2.82
		c-0.67,1.05-1.31,1.78-1.91,2.2c-0.61,0.41-1.66,0.62-3.15,0.62H28.73c-2.04,0-3.56-0.4-4.56-1.19c-1-0.8-1.5-2.13-1.5-4.01
		c0-1.02,0.19-2.28,0.57-3.77l3.15-12.61c0.8-3.22,2.01-5.52,3.63-6.9c1.62-1.39,3.74-2.08,6.35-2.08h22.36l-0.57,5.88
		c-0.67-0.29-1.33-0.49-1.98-0.62c-0.65-0.13-1.49-0.19-2.51-0.19H41.29c-0.83,0-1.45,0.14-1.86,0.41
		c-0.41,0.27-0.72,0.79-0.91,1.55l-4.11,16.53c-0.1,0.29-0.14,0.54-0.14,0.76c0,0.8,0.64,1.19,1.91,1.19h3.92
		c0.83,0,1.46-0.14,1.89-0.43c0.43-0.29,0.74-0.8,0.93-1.53l1.53-6.26H40.1c-0.41,0-0.81,0.07-1.2,0.21
		c-0.38,0.14-0.69,0.26-0.91,0.36l1.45-5.64H58.83z"/>
	<path d="M66.78,57.07l-3.1,4.19c-0.37,0.54-0.67,1.15-0.89,1.82c-0.09,0.48-0.14,0.82-0.14,1.01c0,0.22,0.1,0.62,0.29,1.2h-8.65
		c1.15-1.11,2.07-2.07,2.77-2.87c0.7-0.8,1.4-1.69,2.1-2.68l16.96-23.32l-0.91-1.72h13.81l4.3,26.37c0.29,1.62,0.83,3.03,1.62,4.2
		H79.61c0.35-0.48,0.61-0.87,0.79-1.17c0.17-0.3,0.31-0.64,0.41-1c0.1-0.37,0.14-0.85,0.14-1.46c0-0.32-0.02-0.54-0.05-0.67
		l-0.67-3.92H66.78z M79.47,52.01L77.7,41.66l-7.29,10.35H79.47z"/>
	<path d="M119.79,60.22c0.86,0,1.78-0.07,2.77-0.21c0.99-0.14,1.83-0.41,2.53-0.79l-2.53,6.07H96.19c0.45-0.64,0.85-1.35,1.22-2.13
		c0.37-0.78,0.71-1.82,1.03-3.13l5.02-20.07c0.19-0.73,0.33-1.44,0.43-2.13c0.1-0.68,0.14-1.2,0.14-1.55c0-0.29-0.02-0.58-0.07-0.88
		c-0.05-0.3-0.09-0.53-0.12-0.69h13.57c-0.48,0.64-0.9,1.34-1.27,2.1c-0.37,0.76-0.71,1.82-1.03,3.15l-5.06,20.26H119.79z"/>
	<path d="M130.78,43.69c0.8-3.22,2.01-5.52,3.63-6.9c1.62-1.39,3.74-2.08,6.35-2.08h17.49c2.04,0,3.56,0.4,4.56,1.19
		c1,0.8,1.51,2.13,1.51,4.01c0,1.08-0.19,2.34-0.57,3.77l-3.15,12.61c-0.83,3.22-2.05,5.52-3.65,6.9c-1.61,1.39-3.72,2.08-6.33,2.08
		h-17.49c-2.04,0-3.56-0.4-4.56-1.19c-1-0.8-1.5-2.13-1.5-4.01c0-1.02,0.19-2.28,0.57-3.77L130.78,43.69z M138.81,58.27
		c-0.1,0.29-0.14,0.54-0.14,0.76c0,0.8,0.64,1.19,1.91,1.19h5.06c0.83,0,1.46-0.14,1.89-0.43c0.43-0.29,0.74-0.8,0.93-1.53
		l4.11-16.53c0.1-0.29,0.14-0.54,0.14-0.76c0-0.8-0.65-1.19-1.96-1.19h-5.06c-0.83,0-1.45,0.14-1.86,0.41
		c-0.41,0.27-0.72,0.79-0.91,1.55L138.81,58.27z"/>
	<path d="M198.1,34.71l-0.62,6.31c-0.57-0.41-1.15-0.72-1.72-0.93c-0.57-0.21-1.35-0.31-2.34-0.31h-5.3l-5.06,20.26
		c-0.38,1.5-0.57,2.71-0.57,3.63c0,0.51,0.08,1.05,0.24,1.62h-13.57c0.45-0.64,0.85-1.35,1.22-2.13c0.37-0.78,0.71-1.82,1.03-3.13
		l5.06-20.26h-5.3c-1.05,0-1.86,0.08-2.41,0.24c-0.56,0.16-1.3,0.49-2.22,1l2.53-6.31H198.1z"/>
	<path d="M217.02,60.22c1.27,0,2.25-0.06,2.91-0.18c0.67-0.12,1.53-0.35,2.58-0.68l-2.53,5.92h-26.95c0.45-0.64,0.85-1.35,1.22-2.13
		c0.37-0.78,0.71-1.82,1.03-3.13l5.02-20.07c0.19-0.73,0.33-1.44,0.43-2.13c0.1-0.68,0.14-1.2,0.14-1.55c0-0.29-0.02-0.58-0.07-0.88
		c-0.05-0.3-0.09-0.53-0.12-0.69h26.47l-0.53,5.88c-0.67-0.22-1.4-0.41-2.2-0.57c-0.8-0.16-1.77-0.24-2.91-0.24H212l-1.77,7.17h8.31
		c1.24,0,2.19-0.02,2.84-0.07c0.65-0.05,1.52-0.13,2.6-0.27l-1.67,6.16c-0.67-0.21-1.4-0.39-2.2-0.54c-0.8-0.15-1.75-0.22-2.87-0.22
		h-8.31l-2.05,8.22H217.02z"/>
	<path d="M256.76,40.59c-0.67-0.29-1.33-0.49-1.98-0.62c-0.65-0.13-1.49-0.19-2.51-0.19h-8.36c-0.83,0-1.45,0.14-1.86,0.41
		c-0.41,0.27-0.72,0.79-0.91,1.55l-4.11,16.53c-0.1,0.29-0.14,0.54-0.14,0.76c0,0.8,0.64,1.19,1.91,1.19h6.59
		c2.26,0,3.78-0.07,4.56-0.21c0.78-0.14,1.7-0.45,2.75-0.93l-2.53,6.21h-18.82c-2.04,0-3.56-0.4-4.56-1.19
		c-1-0.8-1.51-2.13-1.51-4.01c0-1.02,0.19-2.28,0.57-3.77l3.15-12.61c0.8-3.22,2.01-5.52,3.63-6.9c1.62-1.39,3.74-2.08,6.35-2.08
		h18.35L256.76,40.59z"/>
</g>
</svg>
