<?xml version="1.0" encoding="utf-8"?>
<!-- Generator: Adobe Illustrator 27.2.0, SVG Export Plug-In . SVG Version: 6.00 Build 0)  -->
<svg version="1.1" id="Layer_1" xmlns="http://www.w3.org/2000/svg" xmlns:xlink="http://www.w3.org/1999/xlink" x="0px" y="0px"
	 viewBox="0 0 265 100" style="enable-background:new 0 0 265 100;" xml:space="preserve">
<g>
	<path d="M56.52,60.52l-2.87,3.25c-9.18-0.84-23.39,1.19-39.58,5.57C25.74,63.63,48.72,59.4,56.52,60.52"/>
	<path d="M56.01,70.68c-0.14-1.61-2.69-0.93-7.09-5.11c0.15,0.19,0.15,0.84,0.3,1c2.82,3.18,1.57,4.52-4.24,8.73l-3.3-1.69
		l-1.21,2.96c1.88,0.33,5.03,1.12,5.23,0.76C54.82,70.79,56.09,73.07,56.01,70.68"/>
	<path d="M44.37,27.77l0.74-5.2c0.91,5,7.87,7.99,16.92,13.83L61,36.72C57.24,35.6,47.47,30.72,44.37,27.77"/>
	<path d="M48.54,51.4l9.7,0.41c9.68,11.13,19.99,12.08,19.17,13.63c-0.61,1.16-16.3-5.9-20.54-11.17l-11.95-1.12
		c-2.71-2.38-4.6-9.3-2.14-13.62C42.3,46.48,44.9,49.4,48.54,51.4"/>
	<g>
		<path d="M192.73,49.11c0.75-3.3,0.97-6.16,0.61-8.61c-0.22-1.64-0.81-3.09-1.68-4.22c-0.71-0.98-1.69-1.78-2.86-2.4
			c-2.21-1.09-4.94-1.65-8.18-1.65c-1.33,0-2.61,0.11-3.82,0.25c-3.29,0.45-6.09,1.5-8.34,3.1c-3.68,2.66-6.23,7.07-7.68,13.23
			c-0.03,0.25-0.12,0.48-0.13,0.75c-0.63,3.14-0.69,5.81-0.1,8.1c0.03,0.1,0.08,0.22,0.1,0.3c0.12,0.41,0.26,0.77,0.42,1.14h0.05
			l-0.02,0.11c0.71,1.65,1.85,2.91,3.39,3.8c2.39,1.37,5.38,2.04,9,2.04c1.14,0,2.24-0.1,3.29-0.23c1.59-0.2,3.05-0.55,4.46-1.07
			c3.11-1.12,5.75-3.15,7.8-6.05c1.05-1.52,1.91-3.2,2.6-5.08C192.09,51.5,192.46,50.35,192.73,49.11 M185.21,48.67
			c-0.86,3.73-2.15,6.48-3.94,8.27c-1.19,1.23-2.69,2.05-4.46,2.42c-0.75,0.19-1.56,0.24-2.43,0.24c-2.95,0-4.92-0.91-5.83-2.65
			c-0.93-1.77-0.98-4.55-0.08-8.37c0.8-3.55,1.9-6.15,3.36-7.79c1.34-1.47,3-2.43,4.98-2.83c0.82-0.16,1.67-0.28,2.57-0.28
			c3.21,0.03,5.22,1.1,6.03,3.2C186.08,42.7,186,45.27,185.21,48.67"/>
		<path d="M124.69,32.45l-0.44,0.67L108.19,58l-2.31,3.59l-0.76,3.25h3.07h3.68l4.89-7.51h7.49h4.81l1.42,7.51h8.09l-5.94-32.4
			H124.69z M124.25,51.58h-4.62l4.62-7.23l2.63-4.11l1.97,11.34H124.25z"/>
		<path d="M109.57,45.61h-1.38H93.63l-1.35,5.74h9.06l-1.79,7.74h-6.24c-1.63,0-2.92-0.17-3.91-0.5c-0.99-0.35-1.7-0.88-2.19-1.56
			c-0.53-0.8-0.81-1.98-0.83-3.57c-0.02-1.57,0.17-3.35,0.62-5.35c0.89-3.83,2.3-6.51,4.15-7.98c1.62-1.27,3.86-1.92,6.73-1.92
			h10.31h3.06l1.35-5.75h-4.41h-9.72c-3.3,0-6.14,0.48-8.45,1.4c-2.26,0.92-4.24,2.43-5.92,4.46c-2.21,2.79-3.87,6.27-4.85,10.47
			c-0.47,2.19-0.77,4.1-0.77,5.87v0.28c0,3.26,0.94,5.73,2.77,7.43c0.95,0.94,2.15,1.6,3.52,1.95c1.38,0.41,3.31,0.56,5.86,0.56
			h14.48l0.76-3.25l2.31-10.02L109.57,45.61z"/>
		<path d="M232.22,40.58c0.91-0.93,1.95-1.55,3.08-1.91c1.16-0.3,2.9-0.46,5.31-0.46h8.94l1.36-5.75h-11.68
			c-2.27,0-4.12,0.18-5.56,0.61c-1.46,0.4-2.89,1.14-4.32,2.24c-2.11,1.56-3.85,3.49-5.23,5.74c-0.23,0.51-0.67,1.04-0.97,1.66
			c-0.58,1.29-1.13,2.38-1.54,3.81c-0.09,0.26-0.2,0.73-0.26,1.09c-0.23,0.41-0.2,0.85-0.28,1.19c-1.12,4.98-0.8,8.89,0.91,11.81
			c0.1,0.14,0.22,0.28,0.29,0.42c1.25,1.82,3.2,2.93,5.82,3.38c1.76,0.3,3.86,0.45,6.31,0.45h9.02l1.31-5.76h-8.69
			c-3.32,0-5.57-0.54-6.69-1.64c-1.17-1.09-1.56-3.06-1.11-5.83h18.24l1.36-5.81h-18.28c0.47-1.53,0.92-2.66,1.23-3.27
			C231.13,41.88,231.6,41.22,232.22,40.58"/>
		<path d="M160.66,59.09h-6.15c-2.98,0-5.03-0.26-6.11-0.84c-1.08-0.54-1.54-1.53-1.43-3c0.07-0.75,0.34-2.3,0.74-4.6l4.26-18.2
			h-6.92l-4.21,18.2c-0.74,3.19-1.04,5.47-1,6.8c0.13,3.49,1.9,5.74,5.21,6.83c1.49,0.42,3.94,0.62,7.46,0.58h7.3l0.85-3.59
			l0.45-2.06c0-0.03-0.02-0.08-0.03-0.11H160.66z"/>
		<path d="M222.28,44.69c0.54-1.33,1.14-2.53,1.86-3.65c0.05-1.24-0.04-2.43-0.4-3.56c-0.32-1.07-0.83-1.96-1.46-2.67
			c-0.66-0.79-1.55-1.38-2.54-1.75c-1.22-0.42-3.28-0.61-6.22-0.61h-4.91h-11.26L191.66,57l-1.82,7.85h1.82h5.08l2.61-11.31h9.26
			h1.87c1.85,0,3.37-0.17,4.54-0.49c1.15-0.34,2.33-0.93,3.47-1.74c0.97-0.71,1.81-1.54,2.59-2.53c0.02-0.11,0.02-0.22,0.08-0.33
			C221.42,47.12,221.83,45.84,222.28,44.69 M216.34,42.76c-0.47,1.98-1.32,3.41-2.51,4.18c-0.8,0.55-2.07,0.82-3.75,0.82h-1.47
			h-7.91l2.23-9.56h5.68h3.85c1.2,0,2.01,0.13,2.52,0.32C216.36,39.17,216.81,40.58,216.34,42.76"/>
	</g>
	<path d="M43.28,23.92l-0.8,3.45c-5.71,2.14-13.35,7.55-21.79,14.55C25.54,34.58,38.06,25.22,43.28,23.92"/>
	<path d="M62.85,42.33l-2.08,0.14c-0.01-0.57,0.03-4.72,0.34-5.36l1.09-1.14C62.37,37.72,62.41,42.2,62.85,42.33"/>
	<path d="M47,42.06c-0.47-0.85-0.55-1.93-0.17-3.21c0.41-0.33,12.86,0.54,13.92,3.67C56.91,40.27,47.66,40.89,47,42.06"/>
</g>
</svg>
