<?xml version="1.0" encoding="utf-8"?>
<!-- Generator: Adobe Illustrator 27.2.0, SVG Export Plug-In . SVG Version: 6.00 Build 0)  -->
<svg version="1.1" id="Layer_1" xmlns="http://www.w3.org/2000/svg" xmlns:xlink="http://www.w3.org/1999/xlink" x="0px" y="0px"
	 viewBox="0 0 320 100" style="enable-background:new 0 0 320 100;" xml:space="preserve">
<g>
	<path d="M39.89,58.27c1.27,0,2.25-0.06,2.91-0.18c0.67-0.12,1.53-0.35,2.58-0.68l-2.53,5.92H15.91c0.45-0.64,0.85-1.35,1.22-2.13
		c0.37-0.78,0.71-1.82,1.03-3.13l5.02-20.07c0.19-0.73,0.33-1.44,0.43-2.13c0.1-0.68,0.14-1.2,0.14-1.55c0-0.29-0.02-0.58-0.07-0.88
		c-0.05-0.3-0.09-0.53-0.12-0.69h26.47l-0.53,5.88c-0.67-0.22-1.4-0.41-2.2-0.57c-0.8-0.16-1.77-0.24-2.91-0.24h-9.51l-1.77,7.17
		h8.31c1.24,0,2.19-0.02,2.84-0.07c0.65-0.05,1.52-0.13,2.6-0.27l-1.67,6.16c-0.67-0.21-1.4-0.39-2.2-0.54
		c-0.8-0.15-1.75-0.22-2.87-0.22h-8.31l-2.05,8.22H39.89z"/>
	<path d="M66.88,67.25l-1.29-3.92H54.22c-2.04,0-3.56-0.4-4.56-1.19c-1-0.8-1.51-2.13-1.51-4.01c0-1.02,0.19-2.28,0.57-3.77
		l3.15-12.61c0.8-3.22,2.01-5.52,3.63-6.9c1.62-1.39,3.74-2.08,6.35-2.08h17.49c2.04,0,3.56,0.4,4.56,1.19
		c1,0.8,1.51,2.13,1.51,4.01c0,1.08-0.19,2.34-0.57,3.77l-3.15,12.61c-0.83,3.22-2.05,5.52-3.66,6.9c-1.61,1.39-3.72,2.08-6.33,2.08
		h-1.48l1.29,3.92H66.88z M67.12,53.77l1.34,4.11c0.51-0.29,0.88-0.81,1.1-1.58l4.11-16.53c0.1-0.29,0.14-0.54,0.14-0.76
		c0-0.8-0.64-1.19-1.93-1.19h-5c-0.84,0-1.47,0.14-1.89,0.41c-0.42,0.27-0.73,0.79-0.92,1.55l-4.16,16.53
		c-0.1,0.29-0.15,0.54-0.15,0.76c0,0.8,0.64,1.19,1.91,1.19h2.29l-1.39-4.49H67.12z"/>
	<path d="M109.07,58.27c1.62,0,2.65-0.16,3.08-0.48c0.43-0.32,0.82-1.18,1.17-2.58l4.25-16.96c0.45-1.75,0.67-2.98,0.67-3.68
		c0-0.54-0.14-1.15-0.43-1.82h7.36c-0.63,0.67-1.11,1.35-1.43,2.06c-0.32,0.7-0.68,1.85-1.09,3.44l-3.92,15.62
		c-0.86,3.54-2.06,6-3.61,7.38c-1.55,1.39-3.98,2.08-7.29,2.08H92.35c-4.46,0-6.69-1.86-6.69-5.59c0-1.08,0.19-2.37,0.57-3.87
		l3.97-15.86c0.19-0.73,0.33-1.44,0.43-2.13c0.1-0.68,0.14-1.2,0.14-1.55c0-0.29-0.02-0.58-0.07-0.88c-0.05-0.3-0.09-0.53-0.12-0.69
		h13.57c-0.48,0.64-0.9,1.34-1.27,2.1c-0.37,0.76-0.71,1.82-1.03,3.15L97.51,55.4c-0.1,0.45-0.14,0.83-0.14,1.15
		c0,1.15,0.78,1.72,2.34,1.72H109.07z"/>
	<path d="M121.21,63.33c0.45-0.64,0.85-1.35,1.22-2.13c0.37-0.78,0.71-1.82,1.03-3.13l5.02-20.07c0.19-0.73,0.33-1.44,0.43-2.13
		c0.1-0.68,0.14-1.2,0.14-1.55c0-0.29-0.02-0.58-0.07-0.88c-0.05-0.3-0.09-0.53-0.12-0.69h13.57c-0.48,0.64-0.9,1.34-1.27,2.1
		c-0.37,0.76-0.71,1.82-1.03,3.15l-5.02,20.07c-0.38,1.5-0.57,2.71-0.57,3.63c0,0.51,0.08,1.05,0.24,1.62H121.21z"/>
	<path d="M174.95,32.75l-0.62,6.31c-0.57-0.41-1.15-0.72-1.72-0.93c-0.57-0.21-1.35-0.31-2.34-0.31h-5.3l-5.06,20.26
		c-0.38,1.5-0.57,2.71-0.57,3.63c0,0.51,0.08,1.05,0.24,1.62H146c0.45-0.64,0.85-1.35,1.22-2.13c0.37-0.78,0.71-1.82,1.03-3.13
		l5.06-20.26h-5.3c-1.05,0-1.86,0.08-2.41,0.24c-0.56,0.16-1.3,0.49-2.22,1l2.53-6.31H174.95z"/>
	<path d="M175.77,41.73c0.8-3.22,2.01-5.52,3.63-6.9c1.62-1.39,3.74-2.08,6.35-2.08h17.49c2.04,0,3.56,0.4,4.56,1.19
		c1,0.8,1.51,2.13,1.51,4.01c0,1.08-0.19,2.34-0.57,3.77l-3.15,12.61c-0.83,3.22-2.05,5.52-3.66,6.9c-1.61,1.39-3.72,2.08-6.33,2.08
		h-17.49c-2.04,0-3.56-0.4-4.56-1.19c-1-0.8-1.51-2.13-1.51-4.01c0-1.02,0.19-2.28,0.57-3.77L175.77,41.73z M183.79,56.31
		c-0.1,0.29-0.14,0.54-0.14,0.76c0,0.8,0.64,1.19,1.91,1.19h5.06c0.83,0,1.46-0.14,1.89-0.43c0.43-0.29,0.74-0.8,0.93-1.53
		l4.11-16.53c0.1-0.29,0.14-0.54,0.14-0.76c0-0.8-0.65-1.19-1.96-1.19h-5.06c-0.83,0-1.45,0.14-1.86,0.41
		c-0.41,0.27-0.72,0.79-0.91,1.55L183.79,56.31z"/>
	<path d="M219.48,38.01l-5.02,19.83c-0.48,1.91-0.72,3.17-0.72,3.77c0,0.29,0.02,0.52,0.07,0.69c0.05,0.18,0.18,0.52,0.41,1.03
		h-7.36c0.68-0.7,1.17-1.38,1.48-2.05c0.31-0.67,0.67-1.81,1.09-3.43l4.86-19.59c0.43-1.75,0.65-2.98,0.65-3.68
		c0-0.54-0.14-1.15-0.43-1.82h16.39l6.16,24.96l5-19.47c0.45-1.75,0.68-2.98,0.68-3.68c0-0.54-0.14-1.15-0.43-1.81h7.36
		c-0.64,0.67-1.12,1.35-1.43,2.05c-0.32,0.7-0.69,1.85-1.1,3.44l-6.26,25.08h-15.1L219.48,38.01z"/>
	<path d="M245.95,63.33c0.45-0.64,0.85-1.35,1.22-2.13c0.37-0.78,0.71-1.82,1.03-3.13l5.02-20.07c0.19-0.73,0.33-1.44,0.43-2.13
		c0.1-0.68,0.14-1.2,0.14-1.55c0-0.29-0.02-0.58-0.07-0.88c-0.05-0.3-0.09-0.53-0.12-0.69h13.57c-0.48,0.64-0.9,1.34-1.27,2.1
		c-0.37,0.76-0.71,1.82-1.03,3.15l-5.02,20.07c-0.38,1.5-0.57,2.71-0.57,3.63c0,0.51,0.08,1.05,0.24,1.62H245.95z"/>
	<path d="M297.37,57.09c0.48,1.46,0.96,2.71,1.45,3.74c0.49,1.03,0.96,1.87,1.41,2.5h-14.33l-3.58-12.95l-3.58,3.11l-1.15,4.59
		c-0.38,1.5-0.57,2.71-0.57,3.63c0,0.51,0.08,1.05,0.24,1.62h-13.57c0.45-0.64,0.85-1.35,1.22-2.13c0.37-0.78,0.71-1.82,1.03-3.13
		l5.02-20.07c0.19-0.73,0.33-1.44,0.43-2.13c0.1-0.68,0.14-1.2,0.14-1.55c0-0.29-0.02-0.58-0.07-0.88c-0.05-0.3-0.09-0.53-0.12-0.69
		h13.57c-0.48,0.64-0.9,1.34-1.27,2.1c-0.37,0.76-0.71,1.82-1.03,3.15l-2.1,8.46l10.27-9.27c0.83-0.73,1.41-1.33,1.74-1.79
		c0.33-0.46,0.58-0.96,0.74-1.5l0.19-1.15h10.65c-0.95,0.48-1.76,0.91-2.41,1.29c-0.65,0.38-1.44,0.96-2.36,1.73l-7.16,6.07
		L297.37,57.09z"/>
</g>
</svg>
