<?xml version="1.0" encoding="utf-8"?>
<!-- Generator: Adobe Illustrator 27.2.0, SVG Export Plug-In . SVG Version: 6.00 Build 0)  -->
<svg version="1.1" id="Layer_1" xmlns="http://www.w3.org/2000/svg" xmlns:xlink="http://www.w3.org/1999/xlink" x="0px" y="0px"
	 viewBox="0 0 380 100" style="enable-background:new 0 0 380 100;" xml:space="preserve">
<style type="text/css">
	.st0{fill:url(#SVGID_1_);}
	.st1{fill:#202020;}
	.st2{fill:#FFFFFF;}
	.st3{fill-rule:evenodd;clip-rule:evenodd;fill:#202020;}
</style>
<g>
	<g>
		<linearGradient id="SVGID_1_" gradientUnits="userSpaceOnUse" x1="49.3332" y1="78.147" x2="49.3332" y2="21.853">
			<stop  offset="0" style="stop-color:#FFFFFF"/>
			<stop  offset="4.216054e-03" style="stop-color:#FAFAFA"/>
			<stop  offset="0.0558" style="stop-color:#C0C0C0"/>
			<stop  offset="0.1086" style="stop-color:#8D8D8D"/>
			<stop  offset="0.1617" style="stop-color:#626262"/>
			<stop  offset="0.215" style="stop-color:#3E3E3E"/>
			<stop  offset="0.2686" style="stop-color:#232323"/>
			<stop  offset="0.3226" style="stop-color:#0F0F0F"/>
			<stop  offset="0.3774" style="stop-color:#040404"/>
			<stop  offset="0.4341" style="stop-color:#000000"/>
			<stop  offset="0.7308" style="stop-color:#FFFFFF"/>
			<stop  offset="1" style="stop-color:#000000"/>
		</linearGradient>
		<path class="st0" d="M11.97,78.15l9.85-42.04c0,0,1.79-14.38,19.62-14.25H86.7L76.61,67.68l-0.36,1.11c0,0-3.11,7.74-9.09,8.6
			c0,0-3.47,0.62-9.93,0.74L11.97,78.15z"/>
		<path class="st1" d="M13.72,76.81l9.39-39.71c0,0,1.71-13.58,18.7-13.46h43.13l-9.62,43.28l-0.34,1.04c0,0-2.96,7.31-8.66,8.12
			c0,0-3.31,0.58-9.47,0.7L13.72,76.81z"/>
		<path class="st2" d="M85.12,23.46l-14.13,0.08l-0.57-0.05C66,25.1,62.67,29.63,62,32.46l-8.27,33.76h4.89l7.56-30.96
			c0.32-1.78,2.23-6.72,8.31-7.33h6.6c1.01,0.01,2.1-0.13,3.03-0.48L85.12,23.46z"/>
		<path class="st2" d="M39.53,35.29l-7.56,30.92c-0.36,1.82-2.23,6.72-8.35,7.33l-6.6,0.04c-0.91-0.02-1.8,0.09-2.64,0.36
			l-0.79,2.93l16.54-0.07c3.2-2.07,5.48-5.47,6.03-7.76l8.27-33.76H39.53z"/>
		<path class="st2" d="M35.34,35.29l0,0.02c-2.51,0.01-3.09,2.21-3.09,2.21l-0.03,0.04l-5.33,21.86c-1.23,5.22-1.23,7.93-8.47,7.45
			c-0.88-0.03-1.7,0.07-2.44,0.3l-1.14,4.77c0.67-0.09,1.51-0.1,2.47-0.1h5.61c5.13-0.57,6.56-3.03,8.27-10l6.64-26.55H35.34z"/>
		<path class="st2" d="M80.81,29.63h-5.57c-5.13,0.57-6.56,3.04-8.27,10.04l-6.64,26.55h3.52l0-0.01c1.67,0,2.01-2.05,2.01-2.05
			l0.02-0.01l5.34-22.1c1.24-5.22,1.24-7.89,8.47-7.41c1.09,0.03,2.07-0.14,2.95-0.5l1.09-4.74C82.99,29.55,81.96,29.63,80.81,29.63
			z"/>
		<path class="st2" d="M50.82,36.23c-0.35-0.97-1.61-0.93-1.61-0.93l-0.01,0h-3.88l8.03,26.96l2.31-9.72L50.82,36.23z"/>
		<path class="st2" d="M49.39,66.2l3.3-0.03l-8.03-26.92l-2.35,9.67l4.64,15.49C47.06,64.88,47.74,66.16,49.39,66.2z"/>
	</g>
	<g>
		<g>
			<path class="st3" d="M103.06,39.34l14.17,0.02l-3.96,16.87l-12.87-0.01c-2.24,0-3.98-0.17-5.2-0.49
				c-1.23-0.33-2.28-0.9-3.15-1.73c-2.49-2.3-3.07-6.25-1.76-11.87c0.87-3.69,2.3-6.75,4.31-9.17c1.48-1.79,3.25-3.1,5.27-3.91
				c2.03-0.81,4.52-1.23,7.48-1.23l12.58,0.01l-1.18,5.05h-11.89c-2.56-0.01-4.56,0.55-5.98,1.65c-1.67,1.31-2.9,3.65-3.7,7.02
				c-0.4,1.73-0.59,3.3-0.56,4.69c0.03,1.39,0.27,2.43,0.73,3.11c0.41,0.62,1.07,1.08,1.96,1.36c0.88,0.3,2.04,0.45,3.47,0.45
				l5.54,0l1.59-6.76l-8.04,0L103.06,39.34L103.06,39.34z"/>
			<polygon class="st3" points="235.57,28.07 228.99,56.18 234.78,56.18 239.46,35.94 246.41,56.18 253.89,56.18 260.53,27.83 
				254.74,27.83 249.78,49.02 243.35,28.07 			"/>
			<path class="st1" d="M268.03,27.83l-3.95,16.8c-0.31,1.33-0.45,2.36-0.4,3.11c0.06,0.72,0.28,1.36,0.7,1.86
				c0.93,1.14,2.44,1.72,4.54,1.72c1.34,0,2.58-0.22,3.67-0.68c1.11-0.45,1.94-1.05,2.5-1.82c0.58-0.78,1.11-2.19,1.58-4.19
				l3.94-16.8l5.99,0.01l-3.88,16.51c-0.5,2.15-1.15,3.93-1.94,5.34c-0.78,1.4-1.76,2.53-2.93,3.4c-2.67,1.91-6.03,2.88-10.13,2.88
				c-4.33,0-7.29-0.94-8.85-2.83c-0.82-0.99-1.28-2.08-1.4-3.29c-0.13-1.21,0.08-2.9,0.58-5.07l3.98-16.95l5.84,0L268.03,27.83z"/>
			<path class="st1" d="M154.17,27.86l-3.91,16.83c-0.31,1.34-0.44,2.4-0.39,3.14c0.04,0.75,0.27,1.38,0.69,1.91
				c0.93,1.15,2.45,1.73,4.56,1.73c1.35,0,2.58-0.23,3.69-0.69c1.12-0.44,1.95-1.06,2.52-1.85c0.59-0.79,1.11-2.21,1.58-4.24
				l3.91-16.83h5.99l-3.84,16.53c-0.5,2.19-1.15,3.99-1.94,5.42c-0.79,1.42-1.78,2.57-2.94,3.43c-2.67,1.95-6.06,2.92-10.17,2.92
				c-4.35,0-7.31-0.95-8.88-2.86c-0.82-1-1.28-2.12-1.4-3.34c-0.12-1.22,0.08-2.93,0.59-5.13l3.93-16.98H154.17L154.17,27.86z"/>
			<path class="st3" d="M336.4,27.93l-1.43,4.96h-10.59c0,0-5.04,0.13-6.85,6.11l15.76-0.06L332,44.39l-16.02-0.03
				c0,0-2.07,5.98,6.58,6.23h8.01l-1.42,5.35h-10.72c0,0-9.43,0-9.56-8.53c0,0,0.64-10.57,5.69-14.91c0,0,5.03-5.22,12.78-4.71
				L336.4,27.93z"/>
			<g>
				<g>
					<path class="st1" d="M216.2,27.84c0,0-13.35-0.73-17.31,8.29c0,0-8.9,19.49,6.44,20c0,0,14.84,1.21,19.04-12.69
						C224.36,43.44,229.31,28.58,216.2,27.84z M218.18,41.98c0,0-2.97,10.73-10.89,8.78c0,0-6.68-0.73-2.72-10.97
						c0,0,2.47-8.28,9.41-7.31C213.97,32.48,220.9,32.24,218.18,41.98z"/>
				</g>
			</g>
			<g>
				<g>
					<path class="st3" d="M136.59,27.83l-14.64,0.02l-7.49,28.29h6.36l2.79-10.62h6.53c0,0,4.99-0.12,4.48,5.05l-0.64,5.59h6.78
						l0.64-5.85c0,0,0.38-5.17-3.33-6.31c0,0,7.29-1.76,7.68-8.84C145.75,35.16,146.99,27.65,136.59,27.83z M138.96,36.57
						c-0.38,3.48-4.53,3.11-4.53,3.11h-8.94l1.77-6.57h9.56C139.71,33.34,138.96,36.57,138.96,36.57z"/>
				</g>
			</g>
			<g>
				<g>
					<g>
						<path class="st1" d="M190.79,27.81l-16.6,0.03l-7.32,28.34l6.41-0.02l2.61-9.67h11.9c0,0,6.14,0.35,9.02-6.44
							C196.8,40.04,201.9,27.93,190.79,27.81z M190.92,36.49c-0.39,4.63-3.66,4.51-3.66,4.51l-10.33,0.25l2.22-8.37h8.89
							C191.96,33,190.92,36.49,190.92,36.49z"/>
					</g>
				</g>
			</g>
			<polygon class="st1" points="288.64,27.83 314.21,27.83 312.74,33.2 303.08,33.2 297.14,56.15 291.04,56.15 296.67,33.2 
				287.42,33.2 			"/>
			<path class="st3" d="M362.26,27.58l-1.62,5.49h-10.23c0,0-6.4-0.64-8.34,5l-2.18,7.13c0,0-1.96,6.51,7.03,5.87h9.41l-1.65,5.11
				l-14,0.1c0,0-9.29,0.21-8.03-10.46c0,0,1.04-5.63,2.69-8.75c0,0,3-8.62,13.95-9.34L362.26,27.58z"/>
		</g>
		<g>
			<path class="st1" d="M365.02,29.21c-0.01-0.3-0.02-0.66-0.02-1.02h-0.01c-0.08,0.32-0.19,0.67-0.29,0.96l-0.32,0.97h-0.46
				l-0.27-0.96c-0.08-0.29-0.17-0.64-0.23-0.97h-0.01c-0.01,0.34-0.03,0.72-0.04,1.03l-0.05,0.95h-0.54l0.17-2.49h0.77l0.25,0.83
				c0.08,0.29,0.16,0.6,0.22,0.89h0.02c0.07-0.29,0.15-0.62,0.24-0.89l0.27-0.83h0.77l0.14,2.49h-0.56L365.02,29.21z"/>
			<path class="st1" d="M366.08,27.71c0.19-0.03,0.46-0.05,0.78-0.05c0.38,0,0.65,0.05,0.84,0.2c0.15,0.12,0.24,0.29,0.24,0.52
				c0,0.31-0.23,0.53-0.46,0.61V29c0.18,0.07,0.28,0.23,0.35,0.46c0.08,0.28,0.16,0.61,0.21,0.71h-0.6
				c-0.04-0.07-0.1-0.27-0.17-0.58c-0.07-0.31-0.18-0.4-0.43-0.4h-0.17v0.98h-0.58V27.71z M366.66,28.78h0.23
				c0.29,0,0.46-0.14,0.46-0.36c0-0.23-0.16-0.34-0.43-0.34c-0.14,0-0.22,0.01-0.26,0.02V28.78z"/>
		</g>
	</g>
	<g>
		<path class="st3" d="M273.35,59.47l-2.21,0l-6.09,9.02l2.45,0.01l1.51-2.14h3.24l0.48,2.14l2.08,0L273.35,59.47z M269.72,64.66
			l1.83-2.74l0.55,2.83L269.72,64.66z"/>
		<path class="st3" d="M360.4,59.47l-2.21,0l-6.09,9.02l2.45,0.01l1.5-2.14h3.25l0.48,2.14l2.08,0L360.4,59.47z M356.77,64.66
			l1.82-2.74l0.55,2.83L356.77,64.66z"/>
		<path class="st3" d="M260.75,59.48l1.97,0.03L261.38,65c0,0-0.55,1.94,1.31,1.86h2.46l-0.37,1.6l-3.18,0.03
			c0,0-2.74,0.11-2.32-2.77L260.75,59.48z"/>
		<path class="st1" d="M307.41,59.34l-0.48,1.78h-3.07c0,0-1.92-0.21-2.51,1.62l-0.66,2.31c0,0-0.59,2.1,2.11,1.9h2.83l-0.5,1.65
			l-4.2,0.03c0,0-2.79,0.07-2.41-3.38c0,0,0.31-1.82,0.81-2.83c0,0,0.9-2.79,4.19-3.02L307.41,59.34z"/>
		<path class="st1" d="M350.66,59.34l-0.49,1.78h-3.07c0,0-1.92-0.21-2.51,1.62l-0.66,2.31c0,0-0.59,2.1,2.11,1.9h2.83l-0.5,1.65
			l-4.2,0.03c0,0-2.79,0.07-2.41-3.38c0,0,0.31-1.82,0.81-2.83c0,0,0.9-2.79,4.19-3.02L350.66,59.34z"/>
		<path class="st1" d="M290.32,59.24l-0.48,1.69h-3.55c0,0-1.69,0.04-2.3,2.08l5.29,0.13l-0.43,1.78l-5.38-0.09
			c0,0-0.69,2.04,2.21,2.13h2.69l-0.48,1.82h-3.6c0,0-3.16,0-3.21-2.9c0,0,0.22-3.6,1.91-5.07c0,0,1.69-1.78,4.29-1.6L290.32,59.24z
			"/>
		<path class="st1" d="M316.37,59.24l-0.48,1.69h-3.56c0,0-1.69,0.04-2.3,2.08l5.29,0.13l-0.43,1.78l-5.38-0.09
			c0,0-0.7,2.04,2.21,2.12h2.69l-0.48,1.82h-3.6c0,0-3.17,0-3.21-2.9c0,0,0.22-3.6,1.91-5.07c0,0,1.69-1.78,4.29-1.6L316.37,59.24z"
			/>
		<path class="st1" d="M332.17,59.24l-0.48,1.69h-3.55c0,0-1.69,0.04-2.3,2.08l5.29,0.13l-0.44,1.78l-5.38-0.09
			c0,0-0.7,2.04,2.21,2.12h2.69l-0.48,1.82h-3.6c0,0-3.16,0-3.21-2.9c0,0,0.22-3.6,1.91-5.07c0,0,1.69-1.78,4.29-1.6L332.17,59.24z"
			/>
		<path class="st1" d="M317.32,59.21l2.09,0.03l-1.42,5.81c0,0-0.58,2.06,1.39,1.97h2.6l-0.39,1.7l-3.36,0.03
			c0,0-2.91,0.12-2.45-2.94L317.32,59.21z"/>
		<polygon class="st1" points="291.3,59.32 293.79,59.32 294.88,62.23 297.49,59.29 299.92,59.29 295.75,63.8 297.79,68.68 
			295.33,68.67 294.06,65.57 291.29,68.68 288.85,68.68 293.19,63.86 		"/>
		<polygon class="st3" points="351.83,59.39 353.76,59.38 351.44,68.57 349.55,68.58 351.77,59.63 		"/>
		<path class="st3" d="M223.04,59.43l-2.23,0.01l-6.14,9.08l2.47,0.01l1.51-2.16h3.27l0.48,2.15l2.1,0L223.04,59.43z M219.38,64.66
			l1.84-2.75l0.55,2.85L219.38,64.66z"/>
		<path class="st3" d="M210.18,59.42l2,0.03l-1.36,5.57c0,0-0.55,1.97,1.33,1.88h2.49l-0.38,1.62l-3.22,0.03
			c0,0-2.78,0.12-2.35-2.81L210.18,59.42z"/>
		<path class="st3" d="M203.83,59.38l-1.26,5.47c-0.1,0.44-0.14,0.78-0.13,1.02c0.02,0.24,0.09,0.45,0.22,0.62
			c0.3,0.37,0.79,0.56,1.47,0.56c0.44,0,0.83-0.07,1.19-0.22c0.36-0.15,0.63-0.35,0.82-0.6c0.19-0.26,0.36-0.72,0.51-1.38l1.26-5.47
			h1.94l-1.24,5.37c-0.16,0.71-0.37,1.3-0.63,1.76c-0.25,0.46-0.57,0.84-0.95,1.12c-0.86,0.63-1.96,0.95-3.29,0.95
			c-1.41,0-2.37-0.31-2.87-0.93c-0.26-0.33-0.41-0.69-0.45-1.08s0.03-0.95,0.19-1.67l1.27-5.52H203.83L203.83,59.38z"/>
		<polygon class="st3" points="191.34,59.4 194.3,59.4 194.73,66.34 198.89,59.4 201.77,59.41 199.45,68.56 197.65,68.55 
			199.29,61.95 195.18,68.55 193.29,68.55 192.68,61.84 190.87,68.56 188.99,68.56 		"/>
		<g>
			<g>
				<path class="st3" d="M187.55,59.44l-4.69-0.04l-2.3,9l2.01,0.12l0.82-3.37h2.09c0,0,1.6-0.04,1.44,1.65l-0.21,1.77h2.18
					l0.21-1.85c0,0,0.12-1.69-1.07-2.06c0,0,2.34-0.57,2.47-2.88C190.51,61.78,190.92,59.19,187.55,59.44z M188.29,62.08
					c-0.12,1.15-1.48,1.03-1.48,1.03h-2.92l0.58-2.18h3.12C188.53,61.01,188.29,62.08,188.29,62.08z"/>
			</g>
		</g>
		<g>
			<g>
				<path class="st3" d="M178.87,59.43c0,0-4.24-0.24-5.49,2.67c0,0-2.82,6.27,2.04,6.43c0,0,4.71,0.39,6.04-4.08
					C181.45,64.45,183.02,59.67,178.87,59.43z M179.5,63.98c0,0-0.94,3.45-3.45,2.82c0,0-2.12-0.24-0.86-3.53
					c0,0,0.78-2.67,2.98-2.35C178.16,60.92,180.36,60.84,179.5,63.98z"/>
			</g>
		</g>
		<g>
			<g>
				<path class="st3" d="M243.02,59.44c0,0-4.23-0.23-5.48,2.66c0,0-2.82,6.26,2.03,6.42c0,0,4.7,0.39,6.03-4.07
					C245.6,64.45,247.17,59.68,243.02,59.44z M243.64,63.98c0,0-0.94,3.44-3.44,2.82c0,0-2.11-0.23-0.86-3.52
					c0,0,0.78-2.66,2.98-2.35C242.31,60.93,244.51,60.85,243.64,63.98z"/>
			</g>
		</g>
		<polygon class="st3" points="333.6,59.11 331.35,68.86 333.33,68.86 334.93,61.84 337.31,68.86 339.86,68.86 342.08,59.24 
			340.14,59.11 338.46,66.37 336.26,59.11 		"/>
		<polygon class="st3" points="227.13,59.38 230.1,59.38 230.54,66.35 234.71,59.38 237.61,59.39 235.27,68.58 233.47,68.57 
			235.11,61.94 230.99,68.57 229.09,68.57 228.47,61.84 226.66,68.58 224.78,68.58 		"/>
		<path class="st3" d="M172.26,63.12l-0.39,1.7h-5.68l-0.91,3.93h-2.03l1.15-4.97c0.35-1.43,0.7-2.37,1.06-2.82
			c0.47-0.62,1.04-1.07,1.72-1.33c0.68-0.26,1.57-0.4,2.68-0.4h3.3l-0.39,1.7h-3.04c-0.95,0.01-1.57,0.09-1.87,0.23
			c-0.58,0.22-0.97,0.71-1.16,1.46l-0.12,0.51H172.26L172.26,63.12z"/>
		<path class="st3" d="M255.03,59.56l-0.38,1.55l-4.47-0.01c0,0-1.34-0.15-1.58,1c0,0-0.31,1.13,1.01,0.95l3.13,0.18
			c0,0,1.69,0.14,1.32,2.01c0,0,0.12,2.76-2.7,3.19h-5.91l0.36-1.54l4.76-0.05c0,0,1.28,0.01,1.37-1c0,0,0.33-0.95-0.87-1.11
			l-3.33-0.16c0,0-1.85-0.43-1.15-2.76c0,0,0.53-2.01,2.84-2.27L255.03,59.56z"/>
	</g>
	<g>
		<path class="st3" d="M273.35,59.47l-2.21,0l-6.09,9.02l2.45,0.01l1.51-2.14h3.24l0.48,2.14l2.08,0L273.35,59.47z M269.72,64.66
			l1.83-2.74l0.55,2.83L269.72,64.66z"/>
		<path class="st3" d="M360.4,59.47l-2.21,0l-6.09,9.02l2.45,0.01l1.5-2.14h3.25l0.48,2.14l2.08,0L360.4,59.47z M356.77,64.66
			l1.82-2.74l0.55,2.83L356.77,64.66z"/>
		<path class="st3" d="M260.75,59.48l1.97,0.03L261.38,65c0,0-0.55,1.94,1.31,1.86h2.46l-0.37,1.6l-3.18,0.03
			c0,0-2.74,0.11-2.32-2.77L260.75,59.48z"/>
		<path class="st1" d="M307.41,59.34l-0.48,1.78h-3.07c0,0-1.92-0.21-2.51,1.62l-0.66,2.31c0,0-0.59,2.1,2.11,1.9h2.83l-0.5,1.65
			l-4.2,0.03c0,0-2.79,0.07-2.41-3.38c0,0,0.31-1.82,0.81-2.83c0,0,0.9-2.79,4.19-3.02L307.41,59.34z"/>
		<path class="st1" d="M350.66,59.34l-0.49,1.78h-3.07c0,0-1.92-0.21-2.51,1.62l-0.66,2.31c0,0-0.59,2.1,2.11,1.9h2.83l-0.5,1.65
			l-4.2,0.03c0,0-2.79,0.07-2.41-3.38c0,0,0.31-1.82,0.81-2.83c0,0,0.9-2.79,4.19-3.02L350.66,59.34z"/>
		<path class="st1" d="M290.32,59.24l-0.48,1.69h-3.55c0,0-1.69,0.04-2.3,2.08l5.29,0.13l-0.43,1.78l-5.38-0.09
			c0,0-0.69,2.04,2.21,2.13h2.69l-0.48,1.82h-3.6c0,0-3.16,0-3.21-2.9c0,0,0.22-3.6,1.91-5.07c0,0,1.69-1.78,4.29-1.6L290.32,59.24z
			"/>
		<path class="st1" d="M316.37,59.24l-0.48,1.69h-3.56c0,0-1.69,0.04-2.3,2.08l5.29,0.13l-0.43,1.78l-5.38-0.09
			c0,0-0.7,2.04,2.21,2.12h2.69l-0.48,1.82h-3.6c0,0-3.17,0-3.21-2.9c0,0,0.22-3.6,1.91-5.07c0,0,1.69-1.78,4.29-1.6L316.37,59.24z"
			/>
		<path class="st1" d="M332.17,59.24l-0.48,1.69h-3.55c0,0-1.69,0.04-2.3,2.08l5.29,0.13l-0.44,1.78l-5.38-0.09
			c0,0-0.7,2.04,2.21,2.12h2.69l-0.48,1.82h-3.6c0,0-3.16,0-3.21-2.9c0,0,0.22-3.6,1.91-5.07c0,0,1.69-1.78,4.29-1.6L332.17,59.24z"
			/>
		<path class="st1" d="M317.32,59.21l2.09,0.03l-1.42,5.81c0,0-0.58,2.06,1.39,1.97h2.6l-0.39,1.7l-3.36,0.03
			c0,0-2.91,0.12-2.45-2.94L317.32,59.21z"/>
		<polygon class="st1" points="291.3,59.32 293.79,59.32 294.88,62.23 297.49,59.29 299.92,59.29 295.75,63.8 297.79,68.68 
			295.33,68.67 294.06,65.57 291.29,68.68 288.85,68.68 293.19,63.86 		"/>
		<polygon class="st3" points="351.83,59.39 353.76,59.38 351.44,68.57 349.55,68.58 351.77,59.63 		"/>
		<path class="st3" d="M223.04,59.43l-2.23,0.01l-6.14,9.08l2.47,0.01l1.51-2.16h3.27l0.48,2.15l2.1,0L223.04,59.43z M219.38,64.66
			l1.84-2.75l0.55,2.85L219.38,64.66z"/>
		<path class="st3" d="M210.18,59.42l2,0.03l-1.36,5.57c0,0-0.55,1.97,1.33,1.88h2.49l-0.38,1.62l-3.22,0.03
			c0,0-2.78,0.12-2.35-2.81L210.18,59.42z"/>
		<path class="st3" d="M203.83,59.38l-1.26,5.47c-0.1,0.44-0.14,0.78-0.13,1.02c0.02,0.24,0.09,0.45,0.22,0.62
			c0.3,0.37,0.79,0.56,1.47,0.56c0.44,0,0.83-0.07,1.19-0.22c0.36-0.15,0.63-0.35,0.82-0.6c0.19-0.26,0.36-0.72,0.51-1.38l1.26-5.47
			h1.94l-1.24,5.37c-0.16,0.71-0.37,1.3-0.63,1.76c-0.25,0.46-0.57,0.84-0.95,1.12c-0.86,0.63-1.96,0.95-3.29,0.95
			c-1.41,0-2.37-0.31-2.87-0.93c-0.26-0.33-0.41-0.69-0.45-1.08s0.03-0.95,0.19-1.67l1.27-5.52H203.83L203.83,59.38z"/>
		<polygon class="st3" points="191.34,59.4 194.3,59.4 194.73,66.34 198.89,59.4 201.77,59.41 199.45,68.56 197.65,68.55 
			199.29,61.95 195.18,68.55 193.29,68.55 192.68,61.84 190.87,68.56 188.99,68.56 		"/>
		<g>
			<g>
				<path class="st3" d="M187.55,59.44l-4.69-0.04l-2.3,9l2.01,0.12l0.82-3.37h2.09c0,0,1.6-0.04,1.44,1.65l-0.21,1.77h2.18
					l0.21-1.85c0,0,0.12-1.69-1.07-2.06c0,0,2.34-0.57,2.47-2.88C190.51,61.78,190.92,59.19,187.55,59.44z M188.29,62.08
					c-0.12,1.15-1.48,1.03-1.48,1.03h-2.92l0.58-2.18h3.12C188.53,61.01,188.29,62.08,188.29,62.08z"/>
			</g>
		</g>
		<g>
			<g>
				<path class="st3" d="M178.87,59.43c0,0-4.24-0.24-5.49,2.67c0,0-2.82,6.27,2.04,6.43c0,0,4.71,0.39,6.04-4.08
					C181.45,64.45,183.02,59.67,178.87,59.43z M179.5,63.98c0,0-0.94,3.45-3.45,2.82c0,0-2.12-0.24-0.86-3.53
					c0,0,0.78-2.67,2.98-2.35C178.16,60.92,180.36,60.84,179.5,63.98z"/>
			</g>
		</g>
		<g>
			<g>
				<path class="st3" d="M243.02,59.44c0,0-4.23-0.23-5.48,2.66c0,0-2.82,6.26,2.03,6.42c0,0,4.7,0.39,6.03-4.07
					C245.6,64.45,247.17,59.68,243.02,59.44z M243.64,63.98c0,0-0.94,3.44-3.44,2.82c0,0-2.11-0.23-0.86-3.52
					c0,0,0.78-2.66,2.98-2.35C242.31,60.93,244.51,60.85,243.64,63.98z"/>
			</g>
		</g>
		<polygon class="st3" points="333.6,59.11 331.35,68.86 333.33,68.86 334.93,61.84 337.31,68.86 339.86,68.86 342.08,59.24 
			340.14,59.11 338.46,66.37 336.26,59.11 		"/>
		<polygon class="st3" points="227.13,59.38 230.1,59.38 230.54,66.35 234.71,59.38 237.61,59.39 235.27,68.58 233.47,68.57 
			235.11,61.94 230.99,68.57 229.09,68.57 228.47,61.84 226.66,68.58 224.78,68.58 		"/>
		<path class="st3" d="M172.26,63.12l-0.39,1.7h-5.68l-0.91,3.93h-2.03l1.15-4.97c0.35-1.43,0.7-2.37,1.06-2.82
			c0.47-0.62,1.04-1.07,1.72-1.33c0.68-0.26,1.57-0.4,2.68-0.4h3.3l-0.39,1.7h-3.04c-0.95,0.01-1.57,0.09-1.87,0.23
			c-0.58,0.22-0.97,0.71-1.16,1.46l-0.12,0.51H172.26L172.26,63.12z"/>
		<path class="st3" d="M255.03,59.56l-0.38,1.55l-4.47-0.01c0,0-1.34-0.15-1.58,1c0,0-0.31,1.13,1.01,0.95l3.13,0.18
			c0,0,1.69,0.14,1.32,2.01c0,0,0.12,2.76-2.7,3.19h-5.91l0.36-1.54l4.76-0.05c0,0,1.28,0.01,1.37-1c0,0,0.33-0.95-0.87-1.11
			l-3.33-0.16c0,0-1.85-0.43-1.15-2.76c0,0,0.53-2.01,2.84-2.27L255.03,59.56z"/>
	</g>
</g>
</svg>
