<?xml version="1.0" encoding="utf-8"?>
<!-- Generator: Adobe Illustrator 27.2.0, SVG Export Plug-In . SVG Version: 6.00 Build 0)  -->
<svg version="1.1" id="Layer_1" xmlns="http://www.w3.org/2000/svg" xmlns:xlink="http://www.w3.org/1999/xlink" x="0px" y="0px"
	 viewBox="0 0 125 100" style="enable-background:new 0 0 125 100;" xml:space="preserve">
<g>
	<g>
		<g>
			<path d="M22.89,72.89l-0.48,2.12h-0.86l1.67-6.96h1.11l1.71,6.96h-0.91l-0.48-2.12H22.89z M24.49,72.13
				c-0.38-1.64-0.63-2.71-0.72-3.28h-0.02c-0.09,0.61-0.37,1.83-0.69,3.28H24.49z"/>
			<path d="M27.15,73.49c0.03,0.52,0.3,0.94,0.87,0.94c0.54,0,0.8-0.32,0.8-0.77c0-0.5-0.26-0.75-0.93-1
				c-1.11-0.42-1.42-0.82-1.42-1.55c0-0.7,0.43-1.4,1.53-1.4c1.21,0,1.54,0.82,1.55,1.51h-0.82c-0.01-0.23-0.06-0.84-0.75-0.84
				c-0.46,0-0.68,0.29-0.68,0.68c0,0.4,0.18,0.6,0.89,0.87c1.03,0.39,1.47,0.77,1.47,1.66c0,0.97-0.6,1.53-1.68,1.53
				c-1.11,0-1.65-0.67-1.67-1.61H27.15z"/>
			<path d="M33.75,72.34c0,1.85-0.63,2.77-1.83,2.77c-1.22,0-1.83-0.88-1.83-2.75c0-1.82,0.72-2.66,1.87-2.66
				C33.12,69.7,33.75,70.59,33.75,72.34z M30.95,72.36c0,1.36,0.32,2.03,0.98,2.03c0.65,0,0.96-0.67,0.96-2.03
				c0-1.3-0.31-1.93-0.97-1.93C31.29,70.43,30.95,71,30.95,72.36z"/>
			<path d="M37.7,73.38c-0.02,0.3-0.13,1.72-1.7,1.72c-1.39,0-1.76-1.2-1.76-2.73c0-1.45,0.47-2.68,1.83-2.68
				c1.55,0,1.62,1.42,1.63,1.68h-0.86c-0.01-0.21-0.07-0.96-0.78-0.96c-0.71,0-0.97,0.78-0.97,1.96c0,1.26,0.26,2.01,0.93,2.01
				c0.72,0,0.8-0.73,0.84-1H37.7z"/>
			<path d="M38.34,69.79h0.84v5.22h-0.84V69.79z M38.35,67.71h0.84v1.1h-0.84V67.71z"/>
			<path d="M43.24,74.04c0,0.31,0.03,0.79,0.04,0.97h-0.77c-0.02-0.11-0.05-0.38-0.05-0.57c-0.19,0.41-0.58,0.67-1.23,0.67
				c-1,0-1.37-0.79-1.37-1.52c0-0.98,0.66-1.68,2.02-1.68c0.23,0,0.38,0,0.52,0.02v-0.67c0-0.39-0.07-0.87-0.74-0.87
				c-0.71,0-0.76,0.5-0.79,0.86h-0.81c0.02-0.75,0.38-1.53,1.63-1.53c1.04,0,1.54,0.5,1.54,1.47V74.04z M42.43,72.57
				c-0.13-0.02-0.26-0.02-0.49-0.02c-0.88,0-1.24,0.42-1.24,0.97c0,0.45,0.23,0.88,0.77,0.88c0.73,0,0.96-0.52,0.96-1.56V72.57z"/>
			<path d="M47.43,73.38c-0.02,0.3-0.13,1.72-1.7,1.72c-1.39,0-1.76-1.2-1.76-2.73c0-1.45,0.47-2.68,1.83-2.68
				c1.55,0,1.62,1.42,1.63,1.68h-0.86c-0.01-0.21-0.07-0.96-0.78-0.96c-0.71,0-0.97,0.78-0.97,1.96c0,1.26,0.26,2.01,0.93,2.01
				c0.72,0,0.8-0.73,0.84-1H47.43z"/>
			<path d="M48.08,69.79h0.84v5.22h-0.84V69.79z M48.08,67.71h0.84v1.1h-0.84V67.71z"/>
			<path d="M53.32,72.34c0,1.85-0.63,2.77-1.83,2.77c-1.22,0-1.83-0.88-1.83-2.75c0-1.82,0.72-2.66,1.87-2.66
				C52.68,69.7,53.32,70.59,53.32,72.34z M50.52,72.36c0,1.36,0.32,2.03,0.98,2.03c0.65,0,0.96-0.67,0.96-2.03
				c0-1.3-0.31-1.93-0.97-1.93C50.86,70.43,50.52,71,50.52,72.36z M53.05,67.55l-1.3,1.42h-0.76l1.07-1.42H53.05z"/>
			<path d="M54.04,71.4c0-1.07-0.01-1.37-0.01-1.62h0.81c0.01,0.13,0.03,0.34,0.03,0.66c0.17-0.38,0.52-0.75,1.22-0.75
				c0.78,0,1.34,0.45,1.34,1.59v3.72h-0.85v-3.55c0-0.62-0.19-1.03-0.76-1.03c-0.66,0-0.94,0.42-0.94,1.44v3.13h-0.85V71.4z"/>
			<path d="M64.37,72.11c0-1.28,0.02-2.59,0.04-3.34h-0.02c-0.25,1.23-0.84,4.02-1.38,6.23h-0.81c-0.4-1.95-1.02-4.95-1.26-6.25
				h-0.03c0.04,0.81,0.07,2.33,0.07,3.53v2.72h-0.8v-6.96h1.28c0.52,2.14,1.03,4.66,1.19,5.59h0.01c0.13-0.79,0.76-3.53,1.28-5.59
				h1.26v6.96h-0.84V72.11z"/>
			<path d="M66.77,72.57c0,0.95,0.16,1.82,0.95,1.82c0.78,0,0.87-0.72,0.9-0.89h0.82c-0.02,0.14-0.16,1.6-1.73,1.6
				c-1.57,0-1.79-1.41-1.79-2.72c0-1.66,0.58-2.69,1.83-2.69c1.4,0,1.74,1.13,1.74,2.45c0,0.12-0.01,0.31-0.02,0.43H66.77z
				 M68.65,71.93c0-0.82-0.17-1.51-0.9-1.51c-0.91,0-0.95,1.15-0.96,1.51H68.65z"/>
			<path d="M70.53,69.79c0.52,1.08,0.78,1.59,0.91,1.88h0.01c0.16-0.35,0.5-1.01,0.94-1.88h0.89l-1.36,2.49l1.38,2.74h-0.94
				c-0.49-1.05-0.79-1.66-0.93-1.97h-0.01c-0.13,0.28-0.5,1.04-0.95,1.97h-0.9l1.36-2.62l-1.32-2.6H70.53z"/>
			<path d="M73.67,69.79h0.84v5.22h-0.84V69.79z M73.68,67.71h0.84v1.1h-0.84V67.71z"/>
			<path d="M78.71,73.38c-0.02,0.3-0.13,1.72-1.7,1.72c-1.39,0-1.76-1.2-1.76-2.73c0-1.45,0.47-2.68,1.83-2.68
				c1.55,0,1.62,1.42,1.63,1.68h-0.86c-0.01-0.21-0.07-0.96-0.78-0.96c-0.71,0-0.97,0.78-0.97,1.96c0,1.26,0.26,2.01,0.93,2.01
				c0.72,0,0.8-0.73,0.84-1H78.71z"/>
			<path d="M82.49,74.04c0,0.31,0.03,0.79,0.04,0.97h-0.77c-0.03-0.11-0.05-0.38-0.05-0.57c-0.19,0.41-0.58,0.67-1.23,0.67
				c-1,0-1.37-0.79-1.37-1.52c0-0.98,0.66-1.68,2.02-1.68c0.23,0,0.38,0,0.52,0.02v-0.67c0-0.39-0.07-0.87-0.74-0.87
				c-0.71,0-0.76,0.5-0.8,0.86h-0.81c0.02-0.75,0.38-1.53,1.63-1.53c1.04,0,1.54,0.5,1.54,1.47V74.04z M81.68,72.57
				c-0.13-0.02-0.26-0.02-0.49-0.02c-0.88,0-1.24,0.42-1.24,0.97c0,0.45,0.23,0.88,0.77,0.88c0.73,0,0.96-0.52,0.96-1.56V72.57z"/>
			<path d="M83.48,71.4c0-1.07-0.01-1.37-0.01-1.62h0.81c0.01,0.13,0.03,0.34,0.03,0.66c0.17-0.38,0.52-0.75,1.22-0.75
				c0.78,0,1.34,0.45,1.34,1.59v3.72h-0.85v-3.55c0-0.62-0.19-1.03-0.76-1.03c-0.66,0-0.94,0.42-0.94,1.44v3.13h-0.85V71.4z"/>
			<path d="M90.88,74.04c0,0.31,0.03,0.79,0.04,0.97h-0.77c-0.02-0.11-0.05-0.38-0.05-0.57c-0.19,0.41-0.58,0.67-1.23,0.67
				c-1,0-1.37-0.79-1.37-1.52c0-0.98,0.66-1.68,2.02-1.68c0.23,0,0.38,0,0.52,0.02v-0.67c0-0.39-0.07-0.87-0.74-0.87
				c-0.71,0-0.76,0.5-0.79,0.86h-0.81c0.02-0.75,0.38-1.53,1.63-1.53c1.04,0,1.54,0.5,1.54,1.47V74.04z M90.08,72.57
				c-0.13-0.02-0.26-0.02-0.49-0.02c-0.88,0-1.24,0.42-1.24,0.97c0,0.45,0.23,0.88,0.77,0.88c0.73,0,0.96-0.52,0.96-1.56V72.57z"/>
			<path d="M96.94,67.71v5.94c0,0.53,0,1.05,0.01,1.36h-0.81c-0.02-0.13-0.03-0.46-0.03-0.67c-0.16,0.44-0.49,0.76-1.21,0.76
				c-1.09,0-1.55-0.94-1.55-2.76c0-1.65,0.6-2.65,1.72-2.65c0.66,0,0.92,0.27,1.03,0.52v-2.51H96.94z M94.2,72.36
				c0,1.45,0.32,2.01,0.94,2.01c0.77,0,0.97-0.65,0.97-2.04c0-1.46-0.19-1.89-0.92-1.89C94.6,70.44,94.2,70.95,94.2,72.36z"/>
			<path d="M98.5,72.57c0,0.95,0.15,1.82,0.95,1.82c0.78,0,0.87-0.72,0.9-0.89h0.82c-0.02,0.14-0.16,1.6-1.73,1.6
				c-1.57,0-1.79-1.41-1.79-2.72c0-1.66,0.58-2.69,1.83-2.69c1.4,0,1.73,1.13,1.73,2.45c0,0.12,0,0.31-0.01,0.43H98.5z
				 M100.38,71.93c0-0.82-0.17-1.51-0.9-1.51c-0.91,0-0.95,1.15-0.96,1.51H100.38z"/>
			<path d="M31.53,80.31c0-1.28,0.02-2.59,0.04-3.34h-0.02c-0.25,1.23-0.84,4.02-1.38,6.23h-0.81c-0.4-1.95-1.02-4.95-1.26-6.25
				h-0.03c0.04,0.81,0.07,2.33,0.07,3.53v2.72h-0.8v-6.96h1.28c0.52,2.14,1.03,4.66,1.19,5.59h0.01c0.13-0.79,0.76-3.53,1.28-5.59
				h1.26v6.96h-0.84V80.31z"/>
			<path d="M33.93,80.77c0,0.95,0.16,1.82,0.95,1.82c0.78,0,0.87-0.72,0.9-0.89h0.82c-0.02,0.14-0.16,1.6-1.73,1.6
				c-1.57,0-1.79-1.41-1.79-2.72c0-1.66,0.58-2.69,1.83-2.69c1.4,0,1.74,1.13,1.74,2.45c0,0.12-0.01,0.31-0.02,0.43H33.93z
				 M35.81,80.12c0-0.82-0.17-1.51-0.9-1.51c-0.91,0-0.95,1.15-0.96,1.51H35.81z M36.38,75.8l-1.3,1.42h-0.77l1.07-1.42H36.38z"/>
			<path d="M40.78,75.91v5.94c0,0.53,0,1.05,0.01,1.36h-0.81c-0.02-0.13-0.03-0.46-0.03-0.67c-0.16,0.44-0.49,0.76-1.21,0.76
				c-1.09,0-1.55-0.94-1.55-2.76c0-1.65,0.6-2.65,1.72-2.65c0.66,0,0.92,0.27,1.03,0.52v-2.51H40.78z M38.05,80.55
				c0,1.45,0.32,2.01,0.94,2.01c0.77,0,0.97-0.65,0.97-2.04c0-1.46-0.19-1.89-0.92-1.89C38.44,78.63,38.05,79.15,38.05,80.55z"/>
			<path d="M41.76,77.99h0.84v5.22h-0.84V77.99z M41.76,75.91h0.84v1.1h-0.84V75.91z"/>
			<path d="M46.8,81.58c-0.02,0.3-0.13,1.72-1.7,1.72c-1.39,0-1.76-1.2-1.76-2.73c0-1.45,0.47-2.68,1.83-2.68
				c1.55,0,1.62,1.42,1.63,1.68h-0.86c-0.01-0.21-0.07-0.96-0.78-0.96c-0.71,0-0.97,0.78-0.97,1.96c0,1.26,0.26,2.01,0.93,2.01
				c0.72,0,0.8-0.73,0.84-1H46.8z"/>
			<path d="M50.9,80.54c0,1.85-0.63,2.77-1.83,2.77c-1.22,0-1.83-0.88-1.83-2.75c0-1.82,0.72-2.66,1.87-2.66
				C50.27,77.9,50.9,78.79,50.9,80.54z M48.1,80.56c0,1.36,0.32,2.03,0.98,2.03c0.65,0,0.96-0.67,0.96-2.03
				c0-1.3-0.31-1.93-0.97-1.93C48.44,78.63,48.1,79.2,48.1,80.56z"/>
			<path d="M52.14,81.69c0.03,0.52,0.3,0.94,0.87,0.94c0.54,0,0.8-0.32,0.8-0.77c0-0.5-0.26-0.75-0.93-1
				c-1.11-0.42-1.42-0.82-1.42-1.55c0-0.7,0.43-1.4,1.53-1.4c1.21,0,1.54,0.82,1.55,1.51h-0.82c-0.01-0.23-0.06-0.84-0.75-0.84
				c-0.46,0-0.68,0.29-0.68,0.68c0,0.4,0.18,0.6,0.89,0.87c1.03,0.39,1.47,0.77,1.47,1.66c0,0.97-0.6,1.53-1.68,1.53
				c-1.11,0-1.65-0.67-1.67-1.61H52.14z"/>
			<path d="M58.23,83.21l-1.72-6.96h0.92l0.75,3.24c0.22,0.97,0.48,2.15,0.56,2.82h0.02c0.09-0.62,0.41-1.85,0.64-2.81l0.76-3.25
				h0.89l-1.79,6.96H58.23z"/>
			<path d="M61.69,80.77c0,0.95,0.16,1.82,0.95,1.82c0.78,0,0.87-0.72,0.9-0.89h0.82c-0.02,0.14-0.16,1.6-1.73,1.6
				c-1.57,0-1.79-1.41-1.79-2.72c0-1.66,0.58-2.69,1.83-2.69c1.4,0,1.74,1.13,1.74,2.45c0,0.12-0.01,0.31-0.02,0.43H61.69z
				 M63.57,80.12c0-0.82-0.17-1.51-0.9-1.51c-0.91,0-0.95,1.15-0.96,1.51H63.57z"/>
			<path d="M64.6,77.99h0.73v-1.38h0.83v1.38h0.89v0.71h-0.89v3.32c0,0.35,0.07,0.56,0.47,0.56c0.12,0,0.26-0.01,0.35-0.02v0.64
				c-0.18,0.07-0.46,0.09-0.64,0.09c-0.66,0-1.01-0.26-1.01-1.11V78.7H64.6V77.99z"/>
			<path d="M68.08,80.77c0,0.95,0.15,1.82,0.95,1.82c0.78,0,0.87-0.72,0.9-0.89h0.82c-0.02,0.14-0.16,1.6-1.73,1.6
				c-1.57,0-1.79-1.41-1.79-2.72c0-1.66,0.58-2.69,1.83-2.69c1.4,0,1.73,1.13,1.73,2.45c0,0.12,0,0.31-0.01,0.43H68.08z
				 M69.96,80.12c0-0.82-0.17-1.51-0.9-1.51c-0.91,0-0.95,1.15-0.96,1.51H69.96z"/>
			<path d="M71.51,79.76c0-0.84,0-1.4-0.01-1.78h0.81c0.01,0.13,0.02,0.36,0.02,0.92c0.22-0.62,0.71-0.99,1.38-1v0.93
				c-0.89,0.02-1.36,0.52-1.36,1.49v2.88h-0.84V79.76z"/>
			<path d="M74.18,77.99h0.84v5.22h-0.84V77.99z M74.18,75.91h0.84v1.1h-0.84V75.91z"/>
			<path d="M76.01,79.6c0-1.07-0.01-1.37-0.01-1.62h0.81c0.01,0.13,0.03,0.34,0.03,0.66c0.17-0.38,0.52-0.75,1.22-0.75
				c0.78,0,1.34,0.45,1.34,1.59v3.72h-0.85v-3.55c0-0.62-0.19-1.03-0.76-1.03c-0.66,0-0.94,0.42-0.94,1.44v3.13h-0.85V79.6z"/>
			<path d="M83.41,82.24c0,0.31,0.03,0.79,0.04,0.97h-0.77c-0.02-0.11-0.05-0.38-0.05-0.57c-0.19,0.41-0.58,0.67-1.23,0.67
				c-1,0-1.37-0.79-1.37-1.52c0-0.98,0.66-1.68,2.02-1.68c0.23,0,0.38,0,0.52,0.02v-0.67c0-0.39-0.07-0.87-0.74-0.87
				c-0.71,0-0.76,0.5-0.79,0.86h-0.81c0.02-0.75,0.38-1.53,1.63-1.53c1.04,0,1.54,0.5,1.54,1.47V82.24z M82.61,80.77
				c-0.13-0.02-0.26-0.02-0.49-0.02c-0.88,0-1.24,0.42-1.24,0.97c0,0.45,0.23,0.88,0.77,0.88c0.73,0,0.96-0.52,0.96-1.56V80.77z"/>
			<path d="M84.4,79.76c0-0.84,0-1.4-0.01-1.78h0.81c0.01,0.13,0.02,0.36,0.02,0.92c0.22-0.62,0.71-0.99,1.38-1v0.93
				c-0.89,0.02-1.36,0.52-1.36,1.49v2.88H84.4V79.76z"/>
			<path d="M87.07,77.99h0.84v5.22h-0.84V77.99z M87.07,75.91h0.84v1.1h-0.84V75.91z"/>
			<path d="M92.31,80.54c0,1.85-0.63,2.77-1.83,2.77c-1.22,0-1.83-0.88-1.83-2.75c0-1.82,0.72-2.66,1.87-2.66
				C91.68,77.9,92.31,78.79,92.31,80.54z M89.51,80.56c0,1.36,0.32,2.03,0.98,2.03c0.65,0,0.96-0.67,0.96-2.03
				c0-1.3-0.31-1.93-0.97-1.93C89.85,78.63,89.51,79.2,89.51,80.56z"/>
			<path d="M93.54,81.69c0.03,0.52,0.3,0.94,0.88,0.94c0.54,0,0.79-0.32,0.79-0.77c0-0.5-0.26-0.75-0.93-1
				c-1.11-0.42-1.42-0.82-1.42-1.55c0-0.7,0.43-1.4,1.53-1.4c1.21,0,1.54,0.82,1.55,1.51h-0.82c-0.01-0.23-0.06-0.84-0.75-0.84
				c-0.46,0-0.68,0.29-0.68,0.68c0,0.4,0.18,0.6,0.89,0.87c1.03,0.39,1.47,0.77,1.47,1.66c0,0.97-0.6,1.53-1.68,1.53
				c-1.11,0-1.65-0.67-1.67-1.61H93.54z"/>
			<path d="M15.56,88.11h-2.31v2.54h2.57l-0.11,0.75h-3.3v-6.96h3.27v0.76h-2.42v2.16h2.31V88.11z"/>
			<path d="M16.91,89.88c0.03,0.52,0.3,0.94,0.87,0.94c0.54,0,0.8-0.32,0.8-0.77c0-0.5-0.26-0.75-0.93-1
				c-1.11-0.42-1.42-0.82-1.42-1.55c0-0.7,0.43-1.4,1.53-1.4c1.21,0,1.54,0.82,1.55,1.51h-0.82c-0.01-0.23-0.06-0.84-0.75-0.84
				c-0.46,0-0.68,0.29-0.68,0.68c0,0.4,0.18,0.6,0.89,0.87c1.03,0.39,1.47,0.77,1.47,1.66c0,0.97-0.6,1.53-1.68,1.53
				c-1.11,0-1.65-0.67-1.67-1.61H16.91z"/>
			<path d="M20.88,90.9v2.42h-0.84V87.7c0-0.71,0-1.2-0.01-1.52h0.81c0.01,0.1,0.03,0.43,0.03,0.68c0.18-0.43,0.53-0.76,1.23-0.76
				c0.99,0,1.53,0.87,1.53,2.62c0,1.91-0.66,2.78-1.68,2.78C21.33,91.5,21.03,91.22,20.88,90.9z M22.77,88.76
				c0-1.3-0.3-1.93-0.95-1.93c-0.77,0-0.97,0.73-0.97,1.93c0,1.23,0.11,2.01,0.94,2.01C22.44,90.76,22.77,90.01,22.77,88.76z"/>
			<path d="M24.97,88.97c0,0.95,0.15,1.82,0.95,1.82c0.78,0,0.87-0.72,0.9-0.89h0.82c-0.02,0.14-0.16,1.6-1.73,1.6
				c-1.57,0-1.79-1.41-1.79-2.72c0-1.66,0.58-2.69,1.83-2.69c1.4,0,1.73,1.13,1.73,2.45c0,0.12,0,0.31-0.01,0.43H24.97z
				 M26.85,88.32c0-0.82-0.17-1.51-0.9-1.51c-0.91,0-0.95,1.15-0.96,1.51H26.85z"/>
			<path d="M31.68,89.78c-0.02,0.3-0.13,1.72-1.7,1.72c-1.39,0-1.76-1.2-1.76-2.73c0-1.45,0.47-2.68,1.83-2.68
				c1.55,0,1.62,1.42,1.63,1.68h-0.86c-0.01-0.21-0.07-0.96-0.78-0.96c-0.71,0-0.97,0.78-0.97,1.96c0,1.26,0.26,2.01,0.93,2.01
				c0.72,0,0.8-0.73,0.84-1H31.68z"/>
			<path d="M32.33,86.18h0.84v5.22h-0.84V86.18z M32.34,84.1h0.84v1.1h-0.84V84.1z"/>
			<path d="M37.22,90.44c0,0.31,0.03,0.79,0.04,0.97H36.5c-0.03-0.11-0.05-0.38-0.05-0.57c-0.19,0.41-0.58,0.67-1.23,0.67
				c-1,0-1.37-0.79-1.37-1.52c0-0.98,0.66-1.68,2.02-1.68c0.23,0,0.38,0,0.52,0.02v-0.67c0-0.39-0.07-0.87-0.74-0.87
				c-0.71,0-0.76,0.5-0.8,0.86h-0.81c0.02-0.75,0.38-1.53,1.63-1.53c1.04,0,1.54,0.5,1.54,1.47V90.44z M36.42,88.97
				c-0.13-0.02-0.26-0.02-0.49-0.02c-0.88,0-1.24,0.42-1.24,0.97c0,0.45,0.23,0.88,0.77,0.88c0.73,0,0.96-0.52,0.96-1.56V88.97z"/>
			<path d="M38.21,91.4v-7.3h0.84v7.3H38.21z"/>
			<path d="M40.05,86.18h0.84v5.22h-0.84V86.18z M40.05,84.1h0.84v1.1h-0.84V84.1z"/>
			<path d="M42.32,89.88c0.03,0.52,0.3,0.94,0.87,0.94c0.54,0,0.8-0.32,0.8-0.77c0-0.5-0.26-0.75-0.93-1
				c-1.11-0.42-1.42-0.82-1.42-1.55c0-0.7,0.43-1.4,1.53-1.4c1.21,0,1.54,0.82,1.55,1.51h-0.82c-0.01-0.23-0.06-0.84-0.75-0.84
				c-0.46,0-0.68,0.29-0.68,0.68c0,0.4,0.18,0.6,0.89,0.87c1.03,0.39,1.47,0.77,1.47,1.66c0,0.97-0.6,1.53-1.68,1.53
				c-1.11,0-1.65-0.67-1.67-1.61H42.32z"/>
			<path d="M44.96,86.18h0.73V84.8h0.83v1.38h0.89v0.71h-0.89v3.32c0,0.35,0.07,0.56,0.47,0.56c0.12,0,0.26-0.01,0.35-0.02v0.64
				c-0.18,0.07-0.46,0.09-0.64,0.09c-0.66,0-1.01-0.26-1.01-1.11v-3.48h-0.73V86.18z"/>
			<path d="M51.03,90.44c0,0.31,0.03,0.79,0.04,0.97H50.3c-0.03-0.11-0.05-0.38-0.05-0.57c-0.19,0.41-0.58,0.67-1.23,0.67
				c-1,0-1.37-0.79-1.37-1.52c0-0.98,0.66-1.68,2.02-1.68c0.23,0,0.38,0,0.52,0.02v-0.67c0-0.39-0.07-0.87-0.74-0.87
				c-0.71,0-0.76,0.5-0.8,0.86h-0.81c0.02-0.75,0.38-1.53,1.63-1.53c1.04,0,1.54,0.5,1.54,1.47V90.44z M50.22,88.97
				c-0.13-0.02-0.26-0.02-0.49-0.02c-0.88,0-1.24,0.42-1.24,0.97c0,0.45,0.23,0.88,0.77,0.88c0.73,0,0.96-0.52,0.96-1.56V88.97z"/>
			<path d="M52.41,89.88c0.03,0.52,0.3,0.94,0.88,0.94c0.54,0,0.79-0.32,0.79-0.77c0-0.5-0.26-0.75-0.93-1
				c-1.11-0.42-1.42-0.82-1.42-1.55c0-0.7,0.43-1.4,1.53-1.4c1.21,0,1.54,0.82,1.55,1.51H54c-0.01-0.23-0.06-0.84-0.75-0.84
				c-0.46,0-0.68,0.29-0.68,0.68c0,0.4,0.18,0.6,0.89,0.87c1.03,0.39,1.47,0.77,1.47,1.66c0,0.97-0.6,1.53-1.68,1.53
				c-1.11,0-1.65-0.67-1.67-1.61H52.41z"/>
			<path d="M57.92,88.97c0,0.95,0.15,1.82,0.95,1.82c0.78,0,0.87-0.72,0.9-0.89h0.82c-0.02,0.14-0.16,1.6-1.73,1.6
				c-1.57,0-1.79-1.41-1.79-2.72c0-1.66,0.58-2.69,1.83-2.69c1.4,0,1.73,1.13,1.73,2.45c0,0.12,0,0.31-0.01,0.43H57.92z M59.8,88.32
				c0-0.82-0.17-1.51-0.9-1.51c-0.91,0-0.95,1.15-0.96,1.51H59.8z"/>
			<path d="M61.35,87.8c0-1.07-0.01-1.37-0.01-1.62h0.81c0.01,0.13,0.03,0.34,0.03,0.66c0.17-0.38,0.52-0.75,1.22-0.75
				c0.78,0,1.34,0.45,1.34,1.59v3.72H63.9v-3.55c0-0.62-0.19-1.03-0.76-1.03c-0.66,0-0.94,0.42-0.94,1.44v3.13h-0.85V87.8z"/>
			<path d="M70.64,88.11h-2.31v2.54h2.57l-0.11,0.75h-3.3v-6.96h3.27v0.76h-2.42v2.16h2.31V88.11z"/>
			<path d="M73.98,90.77c-0.2,0.44-0.55,0.72-1.21,0.72c-0.95,0-1.56-0.76-1.56-2.7c0-1.74,0.66-2.7,1.68-2.7
				c0.69,0,0.97,0.32,1.08,0.64c0.01-0.27,0.02-0.46,0.03-0.55h0.81C74.8,86.56,74.8,87,74.8,87.75v5.56h-0.83V90.77z M72.07,88.81
				c0,1.21,0.28,1.96,0.94,1.96c0.81,0,0.96-0.68,0.96-1.98c0-1.29-0.1-1.96-0.91-1.96C72.44,86.83,72.07,87.48,72.07,88.81z"/>
			<path d="M79.14,89.95c0,0.68,0,1.2,0.01,1.45h-0.8c-0.02-0.15-0.04-0.37-0.04-0.67c-0.2,0.51-0.62,0.76-1.23,0.76
				c-0.63,0-1.31-0.27-1.31-1.56v-3.76h0.85v3.56c0,0.64,0.17,1.02,0.74,1.02c0.55,0,0.93-0.33,0.93-1.4v-3.18h0.85V89.95z"/>
			<path d="M80.11,86.18h0.84v5.22h-0.84V86.18z M80.12,84.1h0.84v1.1h-0.84V84.1z"/>
			<path d="M81.95,87.8c0-1.07-0.01-1.37-0.01-1.62h0.81c0.01,0.13,0.03,0.34,0.03,0.66c0.17-0.38,0.52-0.75,1.22-0.75
				c0.78,0,1.34,0.45,1.34,1.59v3.72H84.5v-3.55c0-0.62-0.19-1.03-0.76-1.03c-0.66,0-0.94,0.42-0.94,1.44v3.13h-0.85V87.8z"/>
			<path d="M89.73,88.73c0,1.85-0.63,2.77-1.83,2.77c-1.22,0-1.83-0.88-1.83-2.75c0-1.82,0.72-2.66,1.87-2.66
				C89.1,86.09,89.73,86.98,89.73,88.73z M86.93,88.76c0,1.36,0.32,2.03,0.98,2.03c0.65,0,0.96-0.67,0.96-2.03
				c0-1.3-0.31-1.93-0.97-1.93C87.27,86.82,86.93,87.4,86.93,88.76z"/>
			<path d="M90.96,89.88c0.03,0.52,0.3,0.94,0.88,0.94c0.54,0,0.79-0.32,0.79-0.77c0-0.5-0.26-0.75-0.93-1
				c-1.11-0.42-1.42-0.82-1.42-1.55c0-0.7,0.43-1.4,1.53-1.4c1.21,0,1.54,0.82,1.55,1.51h-0.82c-0.01-0.23-0.06-0.84-0.75-0.84
				c-0.46,0-0.68,0.29-0.68,0.68c0,0.4,0.18,0.6,0.89,0.87c1.03,0.39,1.47,0.77,1.47,1.66c0,0.97-0.6,1.53-1.68,1.53
				c-1.11,0-1.65-0.67-1.67-1.61H90.96z"/>
			<path d="M93.62,92.56c0.32-0.84,0.53-1.8,0.57-2.51H95C94.92,91,94.62,92,94.3,92.56H93.62z"/>
			<path d="M98.14,89.28l-0.48,2.12h-0.86l1.67-6.96h1.11l1.71,6.96h-0.91l-0.48-2.12H98.14z M99.74,88.53
				c-0.38-1.64-0.63-2.71-0.72-3.28h-0.02c-0.09,0.61-0.37,1.83-0.69,3.28H99.74z"/>
			<path d="M101.93,91.41v-1.44h0.86v1.44H101.93z"/>
			<path d="M107.18,89.46c-0.03,0.39-0.2,2.06-1.93,2.06c-1.88,0-2.04-1.92-2.04-3.63c0-2.07,0.56-3.54,2.12-3.54
				c1.71,0,1.81,1.58,1.83,2.03h-0.86c-0.01-0.23-0.05-1.27-0.99-1.27c-1.04,0-1.21,1.4-1.21,2.8c0,1.44,0.15,2.88,1.16,2.88
				c0.89,0,1.02-0.97,1.05-1.31H107.18z"/>
			<path d="M107.71,91.41v-1.44h0.86v1.44H107.71z"/>
			<path d="M112.59,86.06c0,0.95-0.75,1.7-1.72,1.7c-0.97,0-1.74-0.75-1.74-1.7c0-0.94,0.77-1.68,1.74-1.68
				C111.84,84.38,112.59,85.12,112.59,86.06z M109.56,86.06c0,0.75,0.55,1.34,1.31,1.34c0.74,0,1.28-0.6,1.28-1.34
				c0-0.75-0.54-1.35-1.29-1.35C110.11,84.71,109.56,85.32,109.56,86.06z M110.6,86.94h-0.39v-1.68c0.15-0.03,0.37-0.05,0.65-0.05
				c0.32,0,0.46,0.05,0.59,0.12c0.09,0.07,0.17,0.21,0.17,0.37c0,0.18-0.14,0.33-0.35,0.39v0.02c0.17,0.06,0.26,0.18,0.31,0.41
				c0.05,0.26,0.08,0.36,0.12,0.42h-0.42c-0.05-0.06-0.08-0.22-0.13-0.41c-0.03-0.18-0.14-0.27-0.35-0.27h-0.18V86.94z
				 M110.61,85.98h0.18c0.22,0,0.39-0.07,0.39-0.25c0-0.15-0.11-0.26-0.36-0.26c-0.1,0-0.17,0.01-0.22,0.02V85.98z"/>
		</g>
	</g>
	<g>
		<path d="M34.68,21.13l6.11-0.32c0,0,0.65-2.22-5.02-2.22v-1.51c1.46-0.54,1.46-4.32-2-7.78l8.81,2.65l15.78,14.43v1.13l-1.51,1.35
			l-3.24-2.22l0.11,1.95L51.8,29.4l3.67,2.11l-1.78,3.35l-18.8-6.38L34.68,21.13z"/>
		<path d="M43.11,11.14c0,0,5.08-6.92,23.02-3.51l1.08,5.2l5.35-2.39L83.2,21.24v1.08L58.07,35.18l0.92-5.73l4.59-2.43v-0.36
			l-1.19-0.01l-0.97-2.16l-1.35,2.32L43.11,11.14z"/>
		<path d="M56.34,36.86l-1.95,3.4h34.63l-1.84-6.75c0,0-5.02-0.19-5.02-1.54c0-0.84,4.05-2.13,4.05-2.13l-2.43-6.97L56.34,36.86z"/>
		<path d="M53.59,42.15l35.44-0.32c0,0,2.43,2.38,2.38,8.7h-9.4l-1.4-3.08h-3.13v2.11h-7.02l-0.7-2.11h-4.05l-1.08,3.4H49.37
			L53.59,42.15z"/>
		<polygon points="49,52.15 45.7,61.17 65.85,61.17 65.85,57.33 69.09,57.33 70.39,59.82 78.55,59.82 79.2,57.33 82.22,57.33 
			82.44,61.17 92.49,61.17 91.41,51.88 		"/>
		<path d="M34.25,29.13l18.86,6.48l-2.11,2.43l-2.05,1.24l-4.86,5.62l1.03,2.59l-1.55,6.54c-0.61,0-2.5,0.27-4.2-0.62
			c-1.54-0.78-6.22-5.84-6.23-6.2c0-0.36-0.12-4.9-0.12-4.9s-0.97-1.67-0.97-4.86C32.03,34.26,34.46,31.56,34.25,29.13z
			 M37.78,40.26c-0.7,0-2,2.19-2,4c0,1.27,0.76,1.49,1.16,1.49c0.7,0,1.59-1.42,1.59-3.35C38.53,40.82,38.32,40.26,37.78,40.26z"/>
	</g>
</g>
</svg>
