<?xml version="1.0" encoding="utf-8"?>
<!-- Generator: Adobe Illustrator 27.2.0, SVG Export Plug-In . SVG Version: 6.00 Build 0)  -->
<svg version="1.1" id="Layer_1" xmlns="http://www.w3.org/2000/svg" xmlns:xlink="http://www.w3.org/1999/xlink" x="0px" y="0px"
	 viewBox="0 0 600 180" style="enable-background:new 0 0 600 180;" xml:space="preserve">
<style type="text/css">
	.st0{fill:#FFFFFF;}
</style>
<g>
	<g>
		<g>
			<g>
				<g>
					<g>
						<path class="st0" d="M230.26,112.46v13.53h-1.18l-8.7-10.98v10.98h-1.43v-13.53h1.18l8.72,10.98v-10.98H230.26z"/>
					</g>
					<g>
						<path class="st0" d="M236.01,124.59c-0.98-1-1.47-2.47-1.47-4.39v-7.75h1.43v7.69c0,1.57,0.35,2.74,1.06,3.52
							c0.71,0.77,1.73,1.16,3.07,1.16c1.35,0,2.38-0.39,3.09-1.16c0.71-0.77,1.06-1.95,1.06-3.52v-7.69h1.39v7.75
							c0,1.92-0.49,3.38-1.46,4.39s-2.33,1.51-4.09,1.51C238.36,126.1,236.99,125.6,236.01,124.59z"/>
					</g>
					<g>
						<path class="st0" d="M252.32,113.7h-4.75v-1.24h10.94v1.24h-4.75v12.29h-1.43V113.7z"/>
					</g>
					<g>
						<path class="st0" d="M270.03,125.99l-3.09-4.35c-0.35,0.04-0.71,0.06-1.08,0.06h-3.63v4.29h-1.43v-13.53h5.06
							c1.73,0,3.08,0.41,4.06,1.24s1.47,1.96,1.47,3.4c0,1.06-0.27,1.95-0.8,2.68c-0.53,0.73-1.3,1.25-2.29,1.57l3.3,4.64H270.03z
							 M268.89,119.59c0.71-0.59,1.06-1.42,1.06-2.49c0-1.09-0.35-1.94-1.06-2.52c-0.71-0.59-1.73-0.88-3.07-0.88h-3.59v6.78h3.59
							C267.15,120.48,268.18,120.18,268.89,119.59z"/>
					</g>
					<g>
						<path class="st0" d="M274.76,112.46h1.43v13.53h-1.43V112.46z"/>
					</g>
					<g>
						<path class="st0" d="M282.85,125.21c-1.08-0.59-1.92-1.41-2.53-2.46c-0.61-1.05-0.92-2.23-0.92-3.53s0.31-2.48,0.92-3.53
							c0.61-1.05,1.46-1.87,2.54-2.46c1.08-0.59,2.29-0.89,3.63-0.89c1,0,1.93,0.17,2.78,0.5c0.85,0.34,1.57,0.83,2.16,1.47
							l-0.91,0.91c-1.06-1.07-2.39-1.6-4-1.6c-1.07,0-2.04,0.24-2.92,0.73s-1.56,1.16-2.06,2.01c-0.5,0.85-0.74,1.8-0.74,2.86
							s0.25,2.01,0.74,2.86c0.5,0.85,1.18,1.52,2.06,2.01c0.88,0.49,1.85,0.73,2.92,0.73c1.62,0,2.96-0.54,4-1.62l0.91,0.91
							c-0.59,0.64-1.32,1.14-2.17,1.48s-1.79,0.51-2.79,0.51C285.13,126.1,283.92,125.81,282.85,125.21z"/>
					</g>
					<g>
						<path class="st0" d="M294.49,112.46h1.43v13.53h-1.43V112.46z"/>
					</g>
					<g>
						<path class="st0" d="M302.59,125.2c-1.09-0.6-1.94-1.42-2.55-2.46c-0.61-1.04-0.92-2.22-0.92-3.52s0.31-2.47,0.92-3.52
							c0.61-1.04,1.46-1.87,2.55-2.46c1.09-0.6,2.3-0.9,3.64-0.9c1.34,0,2.55,0.3,3.62,0.89c1.08,0.59,1.92,1.41,2.54,2.46
							c0.62,1.05,0.93,2.22,0.93,3.53s-0.31,2.48-0.93,3.53c-0.62,1.05-1.47,1.87-2.54,2.46c-1.08,0.59-2.28,0.89-3.62,0.89
							C304.9,126.1,303.68,125.8,302.59,125.2z M309.14,124.1c0.86-0.48,1.54-1.15,2.03-2.01c0.49-0.86,0.73-1.81,0.73-2.87
							s-0.25-2.01-0.73-2.87c-0.49-0.86-1.17-1.53-2.03-2.01c-0.86-0.48-1.83-0.72-2.9-0.72c-1.07,0-2.04,0.24-2.91,0.72
							c-0.87,0.48-1.55,1.15-2.05,2.01c-0.5,0.86-0.74,1.81-0.74,2.87s0.25,2.01,0.74,2.87c0.5,0.86,1.18,1.53,2.05,2.01
							c0.87,0.48,1.84,0.72,2.91,0.72C307.31,124.83,308.27,124.59,309.14,124.1z M307.63,108.96h1.84l-3.13,2.4h-1.35
							L307.63,108.96z"/>
					</g>
					<g>
						<path class="st0" d="M327.84,112.46v13.53h-1.18l-8.7-10.98v10.98h-1.43v-13.53h1.18l8.72,10.98v-10.98H327.84z"/>
					</g>
					<g>
						<path class="st0" d="M341.95,121.31v4.68h-1.41v-4.68l-5.41-8.85h1.53l4.64,7.59l4.64-7.59h1.43L341.95,121.31z"/>
					</g>
					<g>
						<path class="st0" d="M363.13,122.37h-7.54l-1.62,3.61h-1.49l6.18-13.53h1.41l6.18,13.53h-1.51L363.13,122.37z M362.61,121.21
							l-3.25-7.27l-3.25,7.27H362.61z"/>
					</g>
					<g>
						<path class="st0" d="M368.5,112.46h1.43v12.29h7.57v1.24h-9V112.46z"/>
					</g>
					<g>
						<path class="st0" d="M379.88,112.46h1.43v13.53h-1.43V112.46z"/>
					</g>
					<g>
						<path class="st0" d="M399.77,112.46v13.53h-1.37v-10.82l-5.31,9.1h-0.68l-5.31-9.04v10.76h-1.37v-13.53h1.18l5.87,10.03
							l5.82-10.03H399.77z"/>
					</g>
					<g>
						<path class="st0" d="M413.74,124.75v1.24h-9.57v-13.53h9.27v1.24h-7.84v4.81h7v1.22h-7v5.02H413.74z"/>
					</g>
					<g>
						<path class="st0" d="M428.4,112.46v13.53h-1.18l-8.7-10.98v10.98h-1.43v-13.53h1.18l8.71,10.98v-10.98H428.4z"/>
					</g>
					<g>
						<path class="st0" d="M435.44,113.7h-4.75v-1.24h10.94v1.24h-4.75v12.29h-1.43V113.7z"/>
					</g>
					<g>
						<path class="st0" d="M451.71,122.37h-7.54l-1.62,3.61h-1.49l6.18-13.53h1.41l6.18,13.53h-1.51L451.71,122.37z M451.19,121.21
							l-3.25-7.27l-3.25,7.27H451.19z"/>
					</g>
					<g>
						<path class="st0" d="M459.14,125.21c-1.08-0.59-1.92-1.41-2.53-2.46c-0.61-1.05-0.92-2.23-0.92-3.53s0.31-2.48,0.92-3.53
							c0.61-1.05,1.46-1.87,2.54-2.46c1.08-0.59,2.29-0.89,3.63-0.89c1.01,0,1.93,0.17,2.78,0.5c0.85,0.34,1.57,0.83,2.16,1.47
							l-0.91,0.91c-1.06-1.07-2.39-1.6-4-1.6c-1.07,0-2.04,0.24-2.92,0.73c-0.88,0.49-1.56,1.16-2.06,2.01
							c-0.5,0.85-0.75,1.8-0.75,2.86s0.25,2.01,0.75,2.86c0.5,0.85,1.18,1.52,2.06,2.01c0.88,0.49,1.85,0.73,2.92,0.73
							c1.62,0,2.96-0.54,4-1.62l0.91,0.91c-0.59,0.64-1.32,1.14-2.17,1.48s-1.79,0.51-2.79,0.51
							C461.42,126.1,460.21,125.81,459.14,125.21z"/>
					</g>
					<g>
						<path class="st0" d="M470.78,112.46h1.43v13.53h-1.43V112.46z"/>
					</g>
					<g>
						<path class="st0" d="M478.89,125.2c-1.09-0.6-1.94-1.42-2.55-2.46c-0.61-1.04-0.92-2.22-0.92-3.52s0.31-2.47,0.92-3.52
							c0.61-1.04,1.46-1.87,2.55-2.46c1.09-0.6,2.3-0.9,3.64-0.9c1.34,0,2.55,0.3,3.62,0.89c1.07,0.59,1.92,1.41,2.54,2.46
							c0.62,1.05,0.93,2.22,0.93,3.53s-0.31,2.48-0.93,3.53c-0.62,1.05-1.47,1.87-2.54,2.46c-1.08,0.59-2.28,0.89-3.62,0.89
							C481.19,126.1,479.97,125.8,478.89,125.2z M485.43,124.1c0.86-0.48,1.54-1.15,2.03-2.01c0.49-0.86,0.73-1.81,0.73-2.87
							s-0.24-2.01-0.73-2.87c-0.49-0.86-1.17-1.53-2.03-2.01c-0.86-0.48-1.83-0.72-2.9-0.72c-1.07,0-2.04,0.24-2.91,0.72
							c-0.87,0.48-1.55,1.15-2.05,2.01s-0.74,1.81-0.74,2.87s0.25,2.01,0.74,2.87c0.5,0.86,1.18,1.53,2.05,2.01
							c0.87,0.48,1.84,0.72,2.91,0.72C483.6,124.83,484.56,124.59,485.43,124.1z M483.92,108.96h1.84l-3.13,2.4h-1.35L483.92,108.96
							z"/>
					</g>
					<g>
						<path class="st0" d="M504.13,112.46v13.53h-1.18l-8.7-10.98v10.98h-1.43v-13.53h1.18l8.71,10.98v-10.98H504.13z"/>
					</g>
					<g>
						<path class="st0" d="M523.17,124.75v1.24h-9.57v-13.53h9.28v1.24h-7.85v4.81h6.99v1.22h-6.99v5.02H523.17z"/>
					</g>
					<g>
						<path class="st0" d="M540.08,127.13c-0.41,0.5-0.9,0.89-1.46,1.15c-0.56,0.26-1.17,0.4-1.83,0.4c-0.8,0-1.56-0.2-2.27-0.59
							c-0.72-0.39-1.52-1.05-2.41-1.98c-1.3-0.04-2.47-0.36-3.52-0.97c-1.04-0.61-1.86-1.42-2.45-2.45
							c-0.59-1.03-0.89-2.18-0.89-3.46c0-1.3,0.31-2.47,0.92-3.52c0.61-1.04,1.46-1.87,2.55-2.46c1.09-0.6,2.3-0.9,3.64-0.9
							c1.34,0,2.55,0.3,3.62,0.89c1.08,0.59,1.92,1.41,2.54,2.46c0.62,1.05,0.93,2.22,0.93,3.53c0,1.13-0.24,2.17-0.71,3.12
							c-0.47,0.95-1.13,1.74-1.97,2.37c-0.85,0.63-1.81,1.05-2.91,1.26c0.99,1.04,1.97,1.57,2.94,1.57c1,0,1.86-0.41,2.57-1.24
							L540.08,127.13z M527.41,122.08c0.5,0.85,1.18,1.52,2.05,2.01c0.87,0.49,1.84,0.73,2.91,0.73c1.07,0,2.03-0.24,2.9-0.73
							c0.86-0.49,1.54-1.16,2.03-2.01c0.49-0.85,0.73-1.8,0.73-2.86s-0.25-2.01-0.73-2.86c-0.49-0.85-1.17-1.52-2.03-2.01
							c-0.86-0.49-1.83-0.73-2.9-0.73c-1.07,0-2.04,0.24-2.91,0.73c-0.87,0.49-1.55,1.16-2.05,2.01c-0.5,0.85-0.75,1.8-0.75,2.86
							S526.91,121.23,527.41,122.08z"/>
					</g>
					<g>
						<path class="st0" d="M544.02,124.59c-0.98-1-1.47-2.47-1.47-4.39v-7.75h1.43v7.69c0,1.57,0.35,2.74,1.06,3.52
							c0.71,0.77,1.73,1.16,3.07,1.16c1.35,0,2.38-0.39,3.09-1.16c0.71-0.77,1.06-1.95,1.06-3.52v-7.69h1.39v7.75
							c0,1.92-0.49,3.38-1.46,4.39c-0.97,1-2.33,1.51-4.09,1.51C546.36,126.1,545,125.6,544.02,124.59z"/>
					</g>
					<g>
						<path class="st0" d="M557.97,112.46h1.43v13.53h-1.43V112.46z"/>
					</g>
					<g>
						<path class="st0" d="M575.11,112.46v13.53h-1.18l-8.7-10.98v10.98h-1.43v-13.53h1.18l8.72,10.98v-10.98H575.11z"/>
					</g>
					<g>
						<path class="st0" d="M588,122.37h-7.54l-1.62,3.61h-1.49l6.18-13.53h1.41l6.18,13.53h-1.51L588,122.37z M587.48,121.21
							l-3.25-7.27l-3.25,7.27H587.48z"/>
					</g>
				</g>
				<g>
					<g>
						<path class="st0" d="M260.11,90.48V52.49h3.67v42.92h-3.67l-35.4-38.05v38.05h-3.67V52.49h3.67L260.11,90.48z"/>
					</g>
					<g>
						<path class="st0" d="M312.57,80.11h-36.53v15.3h-3.79V72.53c0-15.68,7.84-21.17,22.06-21.17c14.28,0,22.12,5.5,22.12,21.17
							v22.88h-3.86V80.11z M312.57,76.82v-4.05c0-11.82-4.87-18.08-18.39-18.08c-13.27,0-18.14,6.26-18.14,18.08v4.05H312.57z"/>
					</g>
					<g>
						<path class="st0" d="M324.89,95.41V52.49h37.61l-0.19,3.16h-33.63V72.4h31.6l-0.19,3.03h-31.41v16.81h33.82l-0.19,3.16H324.89
							z"/>
					</g>
					<g>
						<path class="st0" d="M418.8,99.29c-1.4,1.71-3.06,3.02-4.97,3.92c-1.91,0.9-3.98,1.35-6.22,1.35c-2.72,0-5.3-0.67-7.73-2.01
							c-2.43-1.34-5.17-3.59-8.19-6.74c-4.43-0.13-8.42-1.23-11.98-3.29c-3.55-2.06-6.34-4.85-8.36-8.36
							c-2.02-3.51-3.03-7.44-3.03-11.78c0-4.43,1.04-8.42,3.13-11.98c2.08-3.55,4.98-6.35,8.69-8.39c3.71-2.04,7.84-3.06,12.41-3.06
							c4.56,0,8.67,1.01,12.34,3.03c3.66,2.02,6.55,4.81,8.65,8.39c2.1,3.58,3.16,7.58,3.16,12.01c0,3.86-0.8,7.4-2.4,10.63
							c-1.6,3.22-3.84,5.91-6.71,8.06c-2.87,2.15-6.18,3.58-9.9,4.28c3.38,3.55,6.71,5.33,10,5.33c3.42,0,6.34-1.4,8.75-4.21
							L418.8,99.29z M375.66,82.12c1.69,2.9,4.02,5.18,6.97,6.84c2.96,1.67,6.26,2.5,9.9,2.5c3.64,0,6.93-0.83,9.87-2.5
							c2.94-1.67,5.24-3.95,6.91-6.84c1.67-2.9,2.5-6.14,2.5-9.74c0-3.6-0.83-6.84-2.5-9.74c-1.67-2.9-3.97-5.18-6.91-6.84
							c-2.94-1.67-6.23-2.5-9.87-2.5c-3.64,0-6.94,0.83-9.9,2.5c-2.96,1.67-5.29,3.95-6.97,6.84c-1.69,2.9-2.53,6.14-2.53,9.74
							C373.13,75.97,373.97,79.22,375.66,82.12z"/>
					</g>
					<g>
						<path class="st0" d="M428.08,75.31c0,13.27,6.32,17.89,18.14,17.89c11.82,0,18.27-4.61,18.27-17.89V52.49h3.73v22.88
							c0,14.66-6.64,21.17-21.93,21.17c-15.3,0-22-6.51-22-21.17V52.49h3.79V75.31z"/>
					</g>
					<g>
						<path class="st0" d="M480.47,95.41h-3.79V52.49h3.79V95.41z"/>
					</g>
					<g>
						<path class="st0" d="M528.13,90.48V52.49h3.67v42.92h-3.67l-35.4-38.05v38.05h-3.67V52.49h3.67L528.13,90.48z"/>
					</g>
					<g>
						<path class="st0" d="M580.59,80.11h-36.53v15.3h-3.79V72.53c0-15.68,7.84-21.17,22.06-21.17c14.28,0,22.12,5.5,22.12,21.17
							v22.88h-3.86V80.11z M580.59,76.82v-4.05c0-11.82-4.87-18.08-18.39-18.08c-13.27,0-18.14,6.26-18.14,18.08v4.05H580.59z"/>
					</g>
				</g>
			</g>
			<g>
				<rect x="189.85" y="20.06" class="st0" width="1.11" height="139.87"/>
			</g>
		</g>
		<g>
			<g>
				<g>
					<g>
						<path class="st0" d="M100.39,148.81h-6.66c-0.63,0-1.14-0.51-1.14-1.14c0-6.27-8.31-10.86-15.64-14.91
							c-6.52-3.6-12.14-6.71-12.14-10.91c0-1.18,0.64-2.57,1.38-4.18c1.01-2.2,2.15-4.69,1.98-7.13c-0.03-0.36,0.12-0.7,0.39-0.94
							c3.24-2.84,9.2-8.38,12.76-13.53c0.22-0.32,0.6-0.5,0.98-0.49c1.54,0.06,3.75,0.67,7.38,2.05c0.43,0.16,0.72,0.56,0.74,1.02
							c0.09,2.05,0.14,4.19,0.14,6.55c0,7.66-4.97,11.92-7.93,14.47c-0.79,0.67-1.84,1.58-2.06,2.01c0.01,0.01,0.03,0.03,0.05,0.05
							c17.69,13.15,20.77,25.17,20.89,25.68c0.08,0.34,0,0.7-0.21,0.97C101.07,148.65,100.74,148.81,100.39,148.81z M94.8,146.52
							h3.99c-1.36-3.48-6.05-12.93-19.59-23c-0.79-0.64-0.96-1.31-0.97-1.77c-0.02-1.33,1.2-2.38,2.88-3.82
							c2.84-2.44,7.14-6.12,7.14-12.74c0-2.04-0.03-3.91-0.1-5.7c-1.84-0.68-3.89-1.38-5.36-1.58c-3.57,4.97-9.06,10.14-12.33,13.04
							c0.02,2.81-1.21,5.49-2.2,7.66c-0.6,1.31-1.17,2.55-1.17,3.23c0,2.85,5.57,5.93,10.96,8.91
							C85.53,134.89,93.96,139.55,94.8,146.52z M80.49,121.61L80.49,121.61L80.49,121.61z"/>
					</g>
				</g>
				<g>
					<g>
						<path class="st0" d="M20.96,110.27c-3.06,0-8.7-3.15-11.88-7.68c-0.21-0.29-0.26-0.67-0.15-1.01
							c0.11-0.34,0.37-0.61,0.71-0.73c6.39-2.24,8.67-8.99,11.09-16.14c0.34-1.01,0.68-2.02,1.04-3.02
							c2.78-7.86,6.74-16.25,18.58-16.42c6.2,0,11.93,3.29,16.58,9.5c0.36,0.48,0.29,1.15-0.17,1.55c-2.02,1.75-3.33,3.96-3.9,6.59
							c-0.08,0.35-0.32,0.65-0.65,0.8c-0.33,0.15-0.71,0.13-1.03-0.05c-1.35-0.76-2.95-1.07-4.78-0.93c-2.44,0.32-4.36,1.63-6,4.12
							c-1.45,2.2-2.48,5.01-3.58,7.98C34.15,102.06,31.13,110.27,20.96,110.27z M11.83,102.41c2.93,3.44,7.18,5.57,9.13,5.57
							c8.57,0,11.07-6.78,13.72-13.95c1.09-2.96,2.22-6.02,3.81-8.44c2-3.05,4.51-4.73,7.67-5.14c1.78-0.14,3.39,0.06,4.83,0.6
							c0.69-2.19,1.86-4.1,3.48-5.72c-4.12-5.16-8.86-7.77-14.11-7.77c-10.37,0.15-13.69,7.13-16.45,14.9
							c-0.35,0.99-0.69,1.99-1.03,2.99C20.57,92.3,18.18,99.37,11.83,102.41z"/>
					</g>
				</g>
				<g>
					<g>
						<path class="st0" d="M122.88,148.81h-4.19c-0.63,0-1.14-0.51-1.14-1.14c0-21.82-7.8-30.08-7.88-30.16
							c-0.21-0.21-0.33-0.5-0.33-0.8v-10.43c-4.46-0.17-10.83-2.7-16.47-4.95c-1.39-0.55-2.74-1.09-4.01-1.57
							c-2.53-1-5.68-2.01-6.38-1.92c-0.46,0.11-0.92-0.09-1.19-0.48c-0.26-0.39-0.25-0.9,0.02-1.29c1.19-1.73,1.99-3.24,2.37-4.5
							c0.17-0.56,0.25-1.06,0.25-1.46c0-8.16-1.98-17.52-17.38-17.52c-0.58,0-1.07-0.43-1.13-1.01c-0.07-0.57,0.3-1.11,0.87-1.24
							c4.46-1.07,11.02-0.8,19.32-0.45c4.8,0.2,10.24,0.42,16.16,0.42c13.95,0,15.2-4.1,16.4-8.06c0.11-0.36,0.22-0.71,0.33-1.06
							c0.81-2.44-0.39-5.55-1.33-7.42c-1.03,1.37-2.3,2.27-3.81,2.71c-2.95,0.85-5.87-0.41-6.97-0.99l-5.5,1.52
							c-1.72,0.47-3.03-0.82-3.53-1.65l-3.48-5.69c-0.03-0.05-0.06-0.1-0.08-0.15c-0.64-1.52-0.65-3.37,0.78-4.06
							c1.1-0.53,34.31-14.97,35.72-15.59c0.51-0.22,1.1-0.05,1.41,0.42c0.31,0.46,0.24,1.08-0.16,1.46c-1.4,1.33-2.97,2.9-3.86,3.89
							c20.41,8.72,20.81,31.41,20.81,31.64c0,9.26-2.77,16.23-4.27,19.31h14.35c0.63,0,1.14,0.51,1.14,1.14
							c0,27.79-23.13,36.67-23.37,36.76c-0.3,0.11-0.64,0.09-0.92-0.06c-0.29-0.15-0.5-0.41-0.58-0.73l-1.17-4.52
							c-0.15-0.57,0.16-1.15,0.7-1.36c10.98-4.11,11.98-12.47,11.93-15.7c-5.89,1.55-15.34,1.78-18.13,1.81l-4.16,10.48v33.25
							C124.02,148.3,123.51,148.81,122.88,148.81z M119.82,146.52h1.91v-32.33c0-0.14,0.03-0.29,0.08-0.42l4.52-11.39
							c0.17-0.43,0.59-0.72,1.06-0.72c0.13,0,13.46-0.03,19.57-2.12c0.32-0.11,0.66-0.07,0.95,0.1c0.29,0.17,0.49,0.46,0.54,0.79
							c0.02,0.13,2.07,13.17-12.33,19.15l0.58,2.25c1.91-0.9,5.89-3.06,9.81-6.91c6.98-6.83,10.64-15.6,10.88-26.06h-15.1
							c-0.41,0-0.79-0.22-1-0.58s-0.19-0.8,0.02-1.15c0.05-0.08,4.86-8.11,4.86-19.85c0-0.21-0.43-22.33-20.66-30.05
							c-0.37-0.14-0.67-0.5-0.74-0.88c-0.08-0.38-0.14-0.71,0.99-2.03c-12.02,5.23-28.55,12.43-30.11,13.14
							c-0.03,0.22,0.06,0.71,0.21,1.1l3.43,5.61c0,0.01,0.5,0.77,0.97,0.64l5.95-1.64c0.31-0.09,0.63-0.04,0.91,0.13
							c0.03,0.02,2.93,1.77,5.61,0.98c1.43-0.42,2.59-1.52,3.44-3.27c0.18-0.37,0.54-0.61,0.95-0.64c0.41-0.03,0.8,0.17,1.03,0.51
							c0.17,0.25,4.08,6.25,2.5,11.03c-0.11,0.33-0.21,0.67-0.32,1.01c-1.31,4.31-2.94,9.68-18.58,9.68
							c-5.97,0-11.44-0.23-16.26-0.42c-3.47-0.14-6.63-0.27-9.44-0.3C86.2,75.82,86.2,86.18,86.2,90.11c0,0.64-0.11,1.33-0.35,2.12
							c-0.32,1.07-0.88,2.27-1.66,3.57c1.77,0.41,4.01,1.24,5.49,1.83c1.27,0.48,2.63,1.02,4.03,1.58c5.66,2.25,12.07,4.8,16.1,4.8
							h0.67c0.63,0,1.14,0.51,1.14,1.14v11.12C113.18,118.1,119.58,126.78,119.82,146.52z"/>
					</g>
				</g>
			</g>
			<g>
				<g>
					<path class="st0" d="M57.74,150.23h-5.5c-0.31,0-0.61-0.13-0.83-0.36c-0.22-0.23-0.33-0.53-0.31-0.84
						c0.38-7.49-3.53-18.34-5.87-24.83c-1.24-3.45-1.89-5.29-1.99-6.32c-0.22-2.45,1.9-4.32,3.95-6.12
						c1.21-1.06,2.46-2.16,3.25-3.36c1.12-1.68,0.75-5.96,0.33-10.91c-0.31-3.65-0.66-7.78-0.54-12.03
						C50.54,74.01,61.36,70.3,66.54,70.3c19.66,0,19.66,14.91,19.66,19.81c0,8.88-22.19,26.9-27.72,29.99
						c-1.3,1.75-0.81,16.29,0.39,28.88c0.03,0.32-0.08,0.64-0.29,0.88C58.37,150.09,58.06,150.23,57.74,150.23z M53.4,147.94h3.08
						c-0.21-2.36-0.65-7.73-0.89-13.16c-0.68-15.24,0.85-16.14,1.67-16.63c6.17-3.37,26.65-20.92,26.65-28.05
						c0-8.16-1.98-17.52-17.38-17.52c-4.46,0-13.77,3.16-14.03,12.94c-0.11,4.13,0.23,8.19,0.54,11.78
						c0.47,5.61,0.85,10.03-0.71,12.37c-0.96,1.45-2.33,2.65-3.65,3.8c-1.7,1.49-3.3,2.9-3.18,4.2c0.07,0.78,0.9,3.08,1.86,5.75
						C49.8,130.15,53.4,140.14,53.4,147.94z"/>
				</g>
			</g>
		</g>
	</g>
</g>
</svg>
