<?xml version="1.0" encoding="utf-8"?>
<!-- Generator: Adobe Illustrator 27.2.0, SVG Export Plug-In . SVG Version: 6.00 Build 0)  -->
<svg version="1.1" id="Layer_1" xmlns="http://www.w3.org/2000/svg" xmlns:xlink="http://www.w3.org/1999/xlink" x="0px" y="0px"
	 viewBox="0 0 380 380" style="enable-background:new 0 0 380 380;" xml:space="preserve">
<style type="text/css">
	.st0{fill:#FFFFFF;}
	.st1{display:none;}
	.st2{display:inline;fill:#CCCCCC;}
</style>
<g id="Puntos_00000016042820438007471870000007345481977509612702_">
	<circle class="st0" cx="32.96" cy="48.03" r="5.31"/>
	<circle class="st0" cx="77.83" cy="48.03" r="5.31"/>
	<circle class="st0" cx="122.7" cy="48.03" r="5.31"/>
	<circle class="st0" cx="167.57" cy="48.03" r="5.31"/>
	<circle class="st0" cx="212.43" cy="48.03" r="5.31"/>
	<circle class="st0" cx="257.3" cy="48.03" r="5.31"/>
	<circle class="st0" cx="302.17" cy="48.03" r="5.31"/>
	<circle class="st0" cx="347.04" cy="48.03" r="5.31"/>
	<circle class="st0" cx="32.96" cy="95.82" r="5.31"/>
	<circle class="st0" cx="77.83" cy="95.82" r="5.31"/>
	<circle class="st0" cx="122.7" cy="95.82" r="5.31"/>
	<circle class="st0" cx="167.57" cy="95.82" r="5.31"/>
	<circle class="st0" cx="212.43" cy="95.82" r="5.31"/>
	<circle class="st0" cx="257.3" cy="95.82" r="5.31"/>
	<circle class="st0" cx="302.17" cy="95.82" r="5.31"/>
	<circle class="st0" cx="347.04" cy="95.82" r="5.31"/>
	<circle class="st0" cx="32.96" cy="143.61" r="5.31"/>
	<circle class="st0" cx="77.83" cy="143.61" r="5.31"/>
	<circle class="st0" cx="122.7" cy="143.61" r="5.31"/>
	<circle class="st0" cx="167.57" cy="143.61" r="5.31"/>
	<circle class="st0" cx="212.43" cy="143.61" r="5.31"/>
	<circle class="st0" cx="257.3" cy="143.61" r="5.31"/>
	<circle class="st0" cx="302.17" cy="143.61" r="5.31"/>
	<circle class="st0" cx="347.04" cy="143.61" r="5.31"/>
	<circle class="st0" cx="32.96" cy="191.41" r="5.31"/>
	<circle class="st0" cx="77.83" cy="191.41" r="5.31"/>
	<circle class="st0" cx="122.7" cy="191.41" r="5.31"/>
	<circle class="st0" cx="167.57" cy="191.41" r="5.31"/>
	<circle class="st0" cx="212.43" cy="191.41" r="5.31"/>
	<circle class="st0" cx="257.3" cy="191.41" r="5.31"/>
	<circle class="st0" cx="302.17" cy="191.41" r="5.31"/>
	<circle class="st0" cx="347.04" cy="191.41" r="5.31"/>
	<circle class="st0" cx="32.96" cy="239.2" r="5.31"/>
	<circle class="st0" cx="77.83" cy="239.2" r="5.31"/>
	<circle class="st0" cx="122.7" cy="239.2" r="5.31"/>
	<circle class="st0" cx="167.57" cy="239.2" r="5.31"/>
	<circle class="st0" cx="212.43" cy="239.2" r="5.31"/>
	<circle class="st0" cx="257.3" cy="239.2" r="5.31"/>
	<circle class="st0" cx="302.17" cy="239.2" r="5.31"/>
	<circle class="st0" cx="347.04" cy="239.2" r="5.31"/>
	<circle class="st0" cx="32.96" cy="285.58" r="5.31"/>
	<circle class="st0" cx="77.83" cy="285.58" r="5.31"/>
	<circle class="st0" cx="122.7" cy="285.58" r="5.31"/>
	<circle class="st0" cx="167.57" cy="285.58" r="5.31"/>
	<circle class="st0" cx="212.43" cy="285.58" r="5.31"/>
	<circle class="st0" cx="257.3" cy="285.58" r="5.31"/>
	<circle class="st0" cx="302.17" cy="285.58" r="5.31"/>
	<circle class="st0" cx="347.04" cy="285.58" r="5.31"/>
	<circle class="st0" cx="32.96" cy="331.97" r="5.31"/>
	<circle class="st0" cx="77.83" cy="331.97" r="5.31"/>
	<circle class="st0" cx="122.7" cy="331.97" r="5.31"/>
	<circle class="st0" cx="167.57" cy="331.97" r="5.31"/>
	<circle class="st0" cx="212.43" cy="331.97" r="5.31"/>
	<circle class="st0" cx="257.3" cy="331.97" r="5.31"/>
	<circle class="st0" cx="302.17" cy="331.97" r="5.31"/>
	<circle class="st0" cx="347.04" cy="331.97" r="5.31"/>
</g>
<g id="Puntos_00000039133153108355000690000004446370436298494877_" class="st1">
	<circle class="st2" cx="32.96" cy="48.03" r="5.31"/>
	<circle class="st2" cx="77.83" cy="48.03" r="5.31"/>
	<circle class="st2" cx="122.7" cy="48.03" r="5.31"/>
	<circle class="st2" cx="167.57" cy="48.03" r="5.31"/>
	<circle class="st2" cx="212.43" cy="48.03" r="5.31"/>
	<circle class="st2" cx="257.3" cy="48.03" r="5.31"/>
	<circle class="st2" cx="302.17" cy="48.03" r="5.31"/>
	<circle class="st2" cx="347.04" cy="48.03" r="5.31"/>
	<circle class="st2" cx="32.96" cy="95.82" r="5.31"/>
	<circle class="st2" cx="77.83" cy="95.82" r="5.31"/>
	<circle class="st2" cx="122.7" cy="95.82" r="5.31"/>
	<circle class="st2" cx="167.57" cy="95.82" r="5.31"/>
	<circle class="st2" cx="212.43" cy="95.82" r="5.31"/>
	<circle class="st2" cx="257.3" cy="95.82" r="5.31"/>
	<circle class="st2" cx="302.17" cy="95.82" r="5.31"/>
	<circle class="st2" cx="347.04" cy="95.82" r="5.31"/>
	<circle class="st2" cx="32.96" cy="143.61" r="5.31"/>
	<circle class="st2" cx="77.83" cy="143.61" r="5.31"/>
	<circle class="st2" cx="122.7" cy="143.61" r="5.31"/>
	<circle class="st2" cx="167.57" cy="143.61" r="5.31"/>
	<circle class="st2" cx="212.43" cy="143.61" r="5.31"/>
	<circle class="st2" cx="257.3" cy="143.61" r="5.31"/>
	<circle class="st2" cx="302.17" cy="143.61" r="5.31"/>
	<circle class="st2" cx="347.04" cy="143.61" r="5.31"/>
	<circle class="st2" cx="32.96" cy="191.41" r="5.31"/>
	<circle class="st2" cx="77.83" cy="191.41" r="5.31"/>
	<circle class="st2" cx="122.7" cy="191.41" r="5.31"/>
	<circle class="st2" cx="167.57" cy="191.41" r="5.31"/>
	<circle class="st2" cx="212.43" cy="191.41" r="5.31"/>
	<circle class="st2" cx="257.3" cy="191.41" r="5.31"/>
	<circle class="st2" cx="302.17" cy="191.41" r="5.31"/>
	<circle class="st2" cx="347.04" cy="191.41" r="5.31"/>
	<circle class="st2" cx="32.96" cy="239.2" r="5.31"/>
	<circle class="st2" cx="77.83" cy="239.2" r="5.31"/>
	<circle class="st2" cx="122.7" cy="239.2" r="5.31"/>
	<circle class="st2" cx="167.57" cy="239.2" r="5.31"/>
	<circle class="st2" cx="212.43" cy="239.2" r="5.31"/>
	<circle class="st2" cx="257.3" cy="239.2" r="5.31"/>
	<circle class="st2" cx="302.17" cy="239.2" r="5.31"/>
	<circle class="st2" cx="347.04" cy="239.2" r="5.31"/>
	<circle class="st2" cx="32.96" cy="285.58" r="5.31"/>
	<circle class="st2" cx="77.83" cy="285.58" r="5.31"/>
	<circle class="st2" cx="122.7" cy="285.58" r="5.31"/>
	<circle class="st2" cx="167.57" cy="285.58" r="5.31"/>
	<circle class="st2" cx="212.43" cy="285.58" r="5.31"/>
	<circle class="st2" cx="257.3" cy="285.58" r="5.31"/>
	<circle class="st2" cx="302.17" cy="285.58" r="5.31"/>
	<circle class="st2" cx="347.04" cy="285.58" r="5.31"/>
	<circle class="st2" cx="32.96" cy="331.97" r="5.31"/>
	<circle class="st2" cx="77.83" cy="331.97" r="5.31"/>
	<circle class="st2" cx="122.7" cy="331.97" r="5.31"/>
	<circle class="st2" cx="167.57" cy="331.97" r="5.31"/>
	<circle class="st2" cx="212.43" cy="331.97" r="5.31"/>
	<circle class="st2" cx="257.3" cy="331.97" r="5.31"/>
	<circle class="st2" cx="302.17" cy="331.97" r="5.31"/>
	<circle class="st2" cx="347.04" cy="331.97" r="5.31"/>
</g>
</svg>
